<svg xmlns="http://www.w3.org/2000/svg" xmlns:xlink="http://www.w3.org/1999/xlink" version="1.0" id="Layer_1" x="0px" y="0px" viewBox="0 0 498.4 139.3" style="enable-background:new 0 0 498.4 139.3;/* background: aqua; */" xml:space="preserve">
<style type="text/css">
	.st0{fill:#fff;}
	.st1{fill:#fff;}
</style>
<g>
	<g>
		<path class="st0" d="M341.7,22.4c2.5,2.8,3.7,7.3,3.7,13.6v19.9c0,2-0.6,3.5-1.8,4.6c-1.2,1-2.8,1.5-4.6,1.5    c-1.8,0-3.4-0.5-4.6-1.5c-1.3-1-1.9-2.6-1.9-4.6v-20c0-2.8-0.5-4.7-1.4-5.8c-0.9-1.1-2.4-1.7-4.3-1.7c-2.4,0-4.3,0.8-5.8,2.5    c-1.4,1.7-2.1,4-2.1,7v18.1c0,2-0.6,3.5-1.8,4.6c-1.2,1-2.8,1.5-4.6,1.5c-1.8,0-3.4-0.5-4.6-1.5c-1.3-1-1.9-2.6-1.9-4.6v-20    c0-2.8-0.5-4.7-1.4-5.8c-0.9-1.1-2.4-1.7-4.3-1.7c-2.4,0-4.3,0.8-5.8,2.5c-1.4,1.7-2.1,4-2.1,7v18.1c0,2-0.6,3.5-1.8,4.6    c-1.2,1-2.8,1.5-4.6,1.5c-1.8,0-3.4-0.5-4.6-1.5c-1.3-1-1.9-2.6-1.9-4.6V24.3c0-1.9,0.6-3.4,1.9-4.4c1.3-1,2.9-1.5,4.7-1.5    c1.7,0,3.2,0.5,4.3,1.5c1.1,1,1.7,2.4,1.7,4.2v0.9c1.4-2.2,3.2-3.8,5.4-5c2.2-1.1,4.7-1.7,7.5-1.7c3,0,5.6,0.6,7.7,1.8    c2.1,1.2,3.7,3.2,4.9,6c1.3-2.4,3.2-4.3,5.6-5.7c2.4-1.4,5.2-2.1,8.3-2.1C335.7,18.2,339.2,19.6,341.7,22.4z"/>
		<path class="st0" d="M391.8,50.3c0.7,0.9,1.1,2.1,1.1,3.5c0,1-0.3,1.9-0.9,2.7c-0.6,0.8-1.4,1.5-2.4,2.1c-1.9,1-4.2,1.9-6.8,2.5    c-2.6,0.7-5,1-7.1,1c-4.6,0-8.6-0.9-12-2.7c-3.4-1.8-6-4.3-7.9-7.6c-1.8-3.3-2.8-7.2-2.8-11.7c0-4.3,0.9-8.1,2.7-11.4    c1.8-3.3,4.2-5.9,7.4-7.8c3.2-1.9,6.7-2.8,10.7-2.8c3.8,0,7.2,0.8,10.1,2.5c2.9,1.7,5.1,4.1,6.8,7.2c1.6,3.1,2.4,6.8,2.4,11    c0,1.3-0.3,2.2-0.9,2.9c-0.6,0.7-1.4,1-2.5,1h-24.1c0.4,3.4,1.4,5.8,3.1,7.4c1.7,1.5,4,2.3,7.1,2.3c1.7,0,3.2-0.2,4.5-0.6    c1.3-0.4,2.8-0.9,4.4-1.6c0.8-0.3,1.6-0.6,2.3-0.9c0.7-0.3,1.4-0.4,2-0.4C390.2,48.9,391.1,49.4,391.8,50.3z M368.3,29.5    c-1.5,1.6-2.4,3.9-2.7,6.8h16.6c-0.2-3-0.9-5.3-2.3-6.9c-1.3-1.5-3.3-2.3-5.7-2.3C371.8,27.2,369.8,28,368.3,29.5z"/>
		<path class="st0" d="M441.9,2.1c1.2,1.1,1.8,2.5,1.8,4.3v49.5c0,1.8-0.6,3.3-1.8,4.4c-1.2,1.1-2.7,1.7-4.7,1.7    c-1.9,0-3.5-0.6-4.7-1.7c-1.2-1.1-1.8-2.6-1.8-4.4v-0.7c-1.3,2.2-3.1,3.9-5.4,5.1c-2.3,1.2-4.9,1.8-7.9,1.8    c-3.6,0-6.8-0.9-9.7-2.8c-2.8-1.9-5-4.5-6.6-7.8c-1.6-3.4-2.4-7.2-2.4-11.6c0-4.4,0.8-8.2,2.4-11.5c1.6-3.3,3.8-5.8,6.6-7.6    c2.8-1.8,6-2.7,9.7-2.7c2.9,0,5.5,0.6,7.8,1.8c2.3,1.2,4.1,2.9,5.4,5.1v-19c0-1.7,0.6-3.1,1.7-4.1c1.1-1,2.7-1.5,4.6-1.5    C439,0.4,440.6,1,441.9,2.1z M428.4,49.1c1.6-2.1,2.5-5.1,2.5-9c0-3.9-0.8-6.9-2.5-8.9c-1.6-2.1-4-3.1-7-3.1c-3,0-5.4,1-7.1,3.1    c-1.7,2-2.5,5-2.5,8.8c0,3.9,0.8,6.9,2.5,9.1c1.7,2.1,4,3.2,7.1,3.2C424.4,52.3,426.7,51.2,428.4,49.1z"/>
		<path class="st0" d="M491.3,56.7c0,3.2-1.9,4.8-5.8,4.8h-27.9c-1.7,0-3.1-0.5-4.2-1.6c-1.1-1.1-1.6-2.4-1.6-3.9    c0-1.7,0.6-3.2,1.8-4.5L473.7,29h-16.5c-3.9,0-5.8-1.6-5.8-4.8c0-3.3,1.9-4.9,5.8-4.9H484c1.8,0,3.2,0.5,4.3,1.6    c1.1,1.1,1.6,2.4,1.6,4c0,1.7-0.6,3.2-1.8,4.5l-20,22.4h17.5C489.3,51.8,491.3,53.4,491.3,56.7z"/>
	</g>
	<path class="st1" d="M377.8,84.1c2.1,2.4,3.2,6.3,3.2,11.7v17c0,1.7-0.5,3-1.5,3.9c-1,0.9-2.4,1.3-4,1.3c-1.6,0-2.9-0.4-4-1.3   c-1.1-0.9-1.6-2.2-1.6-3.9V95.6c0-2.4-0.4-4-1.2-5c-0.8-1-2.1-1.4-3.7-1.4c-2.1,0-3.7,0.7-4.9,2.1c-1.2,1.4-1.8,3.4-1.8,6v15.5   c0,1.7-0.5,3-1.5,3.9c-1,0.9-2.4,1.3-4,1.3c-1.6,0-2.9-0.4-4-1.3c-1.1-0.9-1.6-2.2-1.6-3.9V95.6c0-2.4-0.4-4-1.2-5   s-2.1-1.4-3.7-1.4c-2.1,0-3.7,0.7-4.9,2.1c-1.2,1.4-1.8,3.4-1.8,6v15.5c0,1.7-0.5,3-1.6,3.9c-1.1,0.9-2.4,1.3-3.9,1.3   c-1.6,0-2.9-0.4-4-1.3c-1.1-0.9-1.6-2.2-1.6-3.9V85.7c0-1.6,0.6-2.9,1.7-3.8c1.1-0.9,2.4-1.3,4-1.3c1.5,0,2.7,0.4,3.7,1.3   c1,0.9,1.5,2.1,1.5,3.6v0.7c1.2-1.9,2.7-3.3,4.6-4.3c1.9-1,4-1.5,6.5-1.5c2.6,0,4.8,0.5,6.6,1.6c1.8,1.1,3.2,2.8,4.2,5.1   c1.1-2.1,2.7-3.7,4.8-4.9c2.1-1.2,4.5-1.8,7.1-1.8C372.6,80.5,375.6,81.7,377.8,84.1z"/>
	<path class="st1" d="M395.6,115.9c-2.9-1.5-5.1-3.7-6.7-6.6c-1.6-2.8-2.4-6.2-2.4-10c0-3.8,0.8-7.2,2.4-10c1.6-2.8,3.8-5,6.7-6.5   c2.9-1.5,6.3-2.3,10.1-2.3s7.2,0.8,10.1,2.3c2.9,1.5,5.1,3.7,6.7,6.5c1.6,2.8,2.4,6.2,2.4,10c0,3.8-0.8,7.2-2.4,10   c-1.6,2.8-3.8,5-6.7,6.6c-2.9,1.5-6.3,2.3-10.1,2.3S398.5,117.4,395.6,115.9z M413.8,99.3c0-3.5-0.7-6.1-2.1-7.8   c-1.4-1.7-3.4-2.6-6-2.6c-5.4,0-8.1,3.5-8.1,10.4c0,6.9,2.7,10.4,8.1,10.4C411.1,109.7,413.8,106.2,413.8,99.3z"/>
	<path class="st1" d="M455.3,81.6c0.9,0.8,1.3,1.9,1.3,3.4c0,1.6-0.4,2.8-1.2,3.6c-0.8,0.8-2.2,1.3-4.2,1.5l-2.2,0.2   c-2.7,0.3-4.7,1.2-5.9,2.7c-1.2,1.5-1.8,3.4-1.8,5.7v14.1c0,1.7-0.5,3-1.6,3.9c-1.1,0.9-2.4,1.3-3.9,1.3c-1.6,0-3-0.4-4-1.3   c-1.1-0.9-1.6-2.2-1.6-3.9V85.7c0-1.6,0.5-2.9,1.6-3.8c1.1-0.9,2.4-1.3,3.9-1.3c1.5,0,2.7,0.4,3.7,1.3c1,0.9,1.5,2.1,1.5,3.6v2   c0.9-2.1,2.2-3.7,4-4.9c1.8-1.1,3.8-1.8,5.9-1.9l1-0.1C453.2,80.5,454.4,80.9,455.3,81.6z"/>
	<path class="st1" d="M489.7,108c0.6,0.8,0.9,1.8,0.9,3c0,0.8-0.2,1.6-0.7,2.3c-0.5,0.7-1.2,1.3-2.1,1.8c-1.7,0.9-3.6,1.6-5.8,2.2   c-2.2,0.6-4.3,0.8-6.1,0.8c-3.9,0-7.4-0.8-10.3-2.3c-2.9-1.5-5.2-3.7-6.8-6.5c-1.6-2.8-2.4-6.2-2.4-10c0-3.7,0.8-7,2.3-9.8   c1.5-2.9,3.6-5.1,6.3-6.7c2.7-1.6,5.8-2.4,9.2-2.4c3.3,0,6.2,0.7,8.7,2.2c2.5,1.5,4.4,3.5,5.8,6.2c1.4,2.7,2.1,5.8,2.1,9.4   c0,1.1-0.3,1.9-0.8,2.5c-0.5,0.6-1.2,0.8-2.2,0.8h-20.7c0.3,2.9,1.2,5,2.7,6.3c1.4,1.3,3.5,2,6.1,2c1.4,0,2.7-0.2,3.8-0.5   c1.1-0.3,2.4-0.8,3.8-1.4c0.7-0.3,1.4-0.6,2-0.8c0.6-0.2,1.2-0.3,1.7-0.3C488.3,106.8,489.1,107.2,489.7,108z M469.5,90.2   c-1.3,1.4-2,3.3-2.3,5.9h14.2c-0.1-2.6-0.8-4.6-2-5.9c-1.2-1.3-2.8-2-4.9-2C472.5,88.2,470.8,88.8,469.5,90.2z"/>
	<g>
		<path class="st0" d="M312.6,83.4c2.3,2.6,3.5,6.5,3.6,11.8l0.5,17.6c0,1.7-0.4,3-1.5,4c-1,1-2.4,1.5-4.2,1.6    c-1.8,0-3.2-0.4-4.2-1.3c-1-0.9-1.6-2.2-1.6-3.9L304.7,96c-0.1-2.5-0.6-4.4-1.6-5.5c-1-1.1-2.4-1.7-4.4-1.6    c-2.4,0.1-4.3,0.9-5.7,2.4c-1.4,1.6-2.1,3.6-2,6.2l0.4,16c0,1.7-0.4,3-1.4,4c-1,1-2.4,1.5-4.2,1.6c-1.8,0-3.2-0.4-4.3-1.3    c-1.1-0.9-1.6-2.2-1.7-3.9l-0.7-28c0-1.6,0.5-2.9,1.5-3.9c1.1-1,2.5-1.5,4.2-1.6c1.6,0,2.9,0.4,3.9,1.3c1,0.9,1.5,2.1,1.6,3.6    l0,1.1c1.3-2.1,2.9-3.7,5-4.8c2.1-1.1,4.4-1.7,7.1-1.8C307,79.6,310.3,80.8,312.6,83.4z" style="fill: #0ad6a1;"/>
	</g>
	<path class="st1" d="M195.4,2.4h-72.5h-2.6H77.7c-2.8,0-5.1,2.4-5.1,5.3c0,2.9,2.3,5.3,5.1,5.3h53.8h62.6h0.5   c29.6,0,53.6,25,53.6,55.9c0,30.9-24,55.9-53.6,55.9l-63.2-0.2l0,0H77.7l0,0c-2.8,0-5.1,2.5-5.1,5.5c0,2.9,2.3,5.3,5.1,5.3h42.5v0   h75.2c35.2,0,63.8-29.8,63.8-66.5C259.2,32.1,230.7,2.4,195.4,2.4z"/>
	<path class="st1" d="M100.9,32.1c0,3.3-2.7,5.9-5.9,5.9H11.2c-3.3,0-5.9-2.7-5.9-5.9l0,0c0-3.3,2.7-5.9,5.9-5.9h83.7   C98.2,26.2,100.9,28.8,100.9,32.1L100.9,32.1z"/>
	<path class="st1" d="M122.8,69.4c0,3.3-2.7,5.9-5.9,5.9H33.1c-3.3,0-5.9-2.7-5.9-5.9l0,0c0-3.3,2.7-5.9,5.9-5.9h83.7   C120.1,63.5,122.8,66.1,122.8,69.4L122.8,69.4z"/>
	<path class="st1" d="M100.9,105.8c0,3.3-2.7,5.9-5.9,5.9H11.2c-3.3,0-5.9-2.7-5.9-5.9l0,0c0-3.3,2.7-5.9,5.9-5.9h83.7   C98.2,99.9,100.9,102.5,100.9,105.8L100.9,105.8z"/>
	<path class="st0" d="M223.2,63.4h-15.9V47.5c0-3.3-2.7-6-6-6c-3.3,0-6,2.7-6,6v15.9h-15.9c-3.3,0-6,2.7-6,6s2.7,6,6,6h15.9v15.9   c0,3.3,2.7,6,6,6c3.3,0,6-2.7,6-6V75.4h15.9c3.3,0,6-2.7,6-6S226.5,63.4,223.2,63.4z" style="&#10;    fill: #0ad6a1;&#10;"/>
</g>
</svg>