<svg width="12" height="16" viewBox="0 0 12 16" fill="none" xmlns="http://www.w3.org/2000/svg">
<path d="M9.88969 0H8.905L8.76062 1.35375C8.67325 2.08491 7.88141 2.96875 6.78625 2.96875H5.21375C4.28281 2.96875 3.47562 2.33031 3.25031 1.41594C3.23934 1.37138 3.25056 1.45866 3.095 0H2.11031C1.10187 0 0.28125 0.820625 0.28125 1.82906V14.1709C0.28125 15.1794 1.10187 16 2.11031 16H9.88969C10.8981 16 11.7188 15.1794 11.7188 14.1709V1.82906C11.7188 0.820625 10.8981 0 9.88969 0V0ZM6.25 12.4688H2.75C2.12987 12.4688 2.12969 11.5312 2.75 11.5312H6.25C6.87012 11.5312 6.87031 12.4688 6.25 12.4688ZM6.25 10.4688H2.75C2.12987 10.4688 2.12969 9.53125 2.75 9.53125H6.25C6.87012 9.53125 6.87031 10.4688 6.25 10.4688ZM6.25 8.46875H2.75C2.12987 8.46875 2.12969 7.53125 2.75 7.53125H6.25C6.87012 7.53125 6.87031 8.46875 6.25 8.46875ZM6.25 6.46875H2.75C2.12987 6.46875 2.12969 5.53125 2.75 5.53125H6.25C6.87012 5.53125 6.87031 6.46875 6.25 6.46875ZM9.71656 12.0463C9.65222 12.6649 8.72072 12.5678 8.78344 11.9537C8.84713 11.3416 9.76653 11.4224 9.71656 12.0463ZM9.71656 10.0463C9.652 10.6668 8.72112 10.567 8.78375 9.95375C8.83378 9.35209 9.76837 9.41225 9.71656 10.0463ZM9.58156 8.33156C9.39334 8.51441 9.10709 8.51481 8.91844 8.33156C8.6405 8.05262 8.80903 7.57453 9.20375 7.53344C9.63956 7.48925 9.89206 8.01997 9.58156 8.33156ZM9.71656 6.04625C9.65206 6.66628 8.72084 6.56681 8.78344 5.95375C8.84819 5.33131 9.779 5.435 9.71656 6.04625ZM4.03813 0L4.16813 1.22C4.29906 1.69906 4.725 2.03125 5.21375 2.03125H6.78625C7.275 2.03125 7.70094 1.69906 7.83187 1.22L7.96187 0H4.03813Z" fill="#BDBDBD"/>
</svg>
