<svg width="135" height="114" viewBox="0 0 135 114" fill="none" xmlns="http://www.w3.org/2000/svg">
<g clip-path="url(#clip0)">
<path d="M111.91 41.5818C114.226 21.2525 99.5793 2.89972 79.1954 0.589755C58.8115 -1.72021 40.4095 12.8874 38.0933 33.2167C35.7772 53.546 50.4239 71.8987 70.8078 74.2087C91.1917 76.5186 109.594 61.9111 111.91 41.5818Z" fill="#D1DDE8"/>
<path d="M119.973 80.2945C128.272 80.2945 135 73.5848 135 65.308C135 57.0312 128.272 50.3215 119.973 50.3215C111.674 50.3215 104.947 57.0312 104.947 65.308C104.947 73.5848 111.674 80.2945 119.973 80.2945Z" fill="#E7EDF4"/>
<path d="M47.0837 76.8975L36.0641 57.8347L17.9119 69.1445L29.1719 88.6469C29.4123 89.1265 29.7329 89.606 30.0935 90.0057C33.179 93.6424 39.3901 93.4825 43.9181 89.646C48.1256 86.0892 49.4079 80.6142 47.0837 76.8975Z" fill="#235196"/>
<path d="M40.3116 82.4526C41.3535 81.5734 42.195 80.5743 42.9163 79.5353C42.8762 79.4553 42.8361 79.3354 42.756 79.2555L38.4684 71.8622C37.8272 72.7414 37.0659 73.5806 36.1442 74.3399C31.2155 78.4962 24.5236 78.696 21.1576 74.7795L26.447 83.9712C30.0534 86.7288 35.9038 86.1693 40.3116 82.4526Z" fill="#4DD0E1"/>
<path d="M36.5851 92.1637C36.1844 91.6842 35.8237 91.1646 35.5432 90.6051L22.6803 68.2653L36.9457 59.3533L36.0641 57.8347L17.9119 69.1445L29.1719 88.6469C29.4123 89.1265 29.7329 89.606 30.0935 90.0057C31.7364 91.9639 34.301 92.8032 36.9858 92.6033C36.8656 92.4435 36.7053 92.3236 36.5851 92.1637Z" fill="url(#paint0_linear)"/>
<path d="M32.8037 70.4454C37.3382 66.5987 38.5035 60.5365 35.4064 56.9052C32.3093 53.2738 26.1226 53.4484 21.5881 57.2951C17.0535 61.1419 15.8883 67.2041 18.9854 70.8354C22.0825 74.4668 28.2692 74.2922 32.8037 70.4454Z" fill="#235196"/>
<path d="M32.2975 69.8638C28.1701 73.3407 22.5601 73.5005 19.7552 70.2235C16.9502 66.9065 17.992 61.4314 22.1194 57.9546C26.2467 54.4777 31.8567 54.3179 34.6617 57.5949C37.4666 60.8719 36.3847 66.387 32.2975 69.8638Z" fill="url(#paint1_linear)"/>
<path d="M38.8291 68.1054V66.3071H38.4284C37.7472 64.9883 36.3447 64.0691 34.7819 64.0691C33.1791 64.0691 31.8166 65.0282 31.1755 66.387H30.7748V68.1854C30.8149 70.4234 32.6181 72.2217 34.862 72.1818C37.066 72.1818 38.8692 70.3434 38.8291 68.1054Z" fill="#D1DDE8"/>
<path d="M37.6389 69.2335C39.2194 67.6572 39.2194 65.1016 37.6389 63.5253C36.0584 61.949 33.4959 61.949 31.9154 63.5253C30.3348 65.1016 30.3348 67.6572 31.9154 69.2335C33.4959 70.8098 36.0584 70.8098 37.6389 69.2335Z" fill="#E7EDF4"/>
<path d="M30.8147 65.5079C30.7346 65.7877 30.6945 66.1074 30.7346 66.4271C30.7346 66.7468 30.7747 67.0265 30.8548 67.3462L38.7488 67.2663C38.829 66.9866 38.8691 66.6669 38.829 66.3471C38.829 66.0274 38.7889 65.7477 38.7088 65.428L30.8147 65.5079Z" fill="white"/>
<path d="M32.1772 59.9126L30.5343 59.1932L30.374 59.5929C28.8914 59.6728 27.4889 60.552 26.8477 62.0307C26.2066 63.5093 26.5271 65.1079 27.4889 66.2669L27.3286 66.6665L28.9715 67.3858C31.0151 68.265 33.4194 67.3459 34.301 65.2678C35.1825 63.1896 34.2609 60.7918 32.1772 59.9126Z" fill="#D1DDE8"/>
<path d="M32.6581 64.5088C31.7765 66.5469 29.3722 67.506 27.3286 66.6268C25.2849 65.7476 24.3232 63.3498 25.2048 61.3116C26.0864 59.2735 28.4906 58.3143 30.5343 59.1935C32.618 60.0728 33.5396 62.4706 32.6581 64.5088Z" fill="#E7EDF4"/>
<path d="M26.5272 66.1472C26.7676 66.307 27.0481 66.4669 27.3286 66.6267C27.6091 66.7466 27.9297 66.8266 28.2102 66.9065L31.3358 59.673C31.0953 59.5132 30.8148 59.3533 30.5343 59.1934C30.2538 59.0736 29.9333 58.9936 29.6528 58.9137L26.5272 66.1472Z" fill="white"/>
<path d="M28.8513 71.3427L28.4506 69.6242L28.0498 69.7042C27.0881 68.5452 25.5254 67.9857 23.9626 68.3454C22.3998 68.7051 21.2778 69.9439 20.9572 71.3826L20.5565 71.4626L20.9572 73.181C21.4782 75.3391 23.6821 76.6978 25.8459 76.1783C28.0498 75.6988 29.3722 73.5407 28.8513 71.3427Z" fill="#D1DDE8"/>
<path d="M25.2396 74.5144C27.4357 74.0986 28.8781 71.9861 28.4612 69.7958C28.0443 67.6056 25.9261 66.1672 23.73 66.5829C21.5339 66.9987 20.0916 69.1112 20.5085 71.3014C20.9253 73.4916 23.0435 74.9301 25.2396 74.5144Z" fill="#E7EDF4"/>
<path d="M20.4363 70.5835C20.4363 70.9032 20.4764 71.1829 20.5565 71.5026C20.6366 71.8223 20.7568 72.1021 20.8771 72.3818L28.5707 70.5435C28.5707 70.2238 28.5307 69.944 28.4505 69.6243C28.3704 69.3046 28.2502 69.0249 28.13 68.7451L20.4363 70.5835Z" fill="white"/>
<path d="M36.1042 51.4409L35.7035 49.7225L35.3028 49.8024C34.3411 48.6435 32.7783 48.084 31.2155 48.4437C29.6527 48.8033 28.5307 50.0422 28.2102 51.4809L27.8094 51.5608L28.2102 53.2793C28.7311 55.4373 30.935 56.7961 33.0988 56.2766C35.2627 55.797 36.585 53.599 36.1042 51.4409Z" fill="#D1DDE8"/>
<path d="M32.6581 54.5579C30.4943 55.0775 28.2904 53.7187 27.7694 51.5606C27.2485 49.4026 28.6109 47.2046 30.7748 46.685C32.9386 46.1655 35.1425 47.5243 35.6635 49.6823C36.1844 51.8803 34.862 54.0384 32.6581 54.5579Z" fill="#E7EDF4"/>
<path d="M27.6892 50.6416C27.6892 50.9613 27.7293 51.241 27.8094 51.5607C27.8896 51.8804 28.0098 52.1602 28.13 52.4399L35.8237 50.6016C35.8237 50.2819 35.7836 50.0021 35.7035 49.6824C35.6233 49.3627 35.5031 49.083 35.3829 48.8032L27.6892 50.6416Z" fill="white"/>
<path d="M26.2868 37.4534L25.8861 35.7349L25.4854 35.8149C24.5237 34.6559 22.9609 34.0964 21.3981 34.4561C19.8353 34.8158 18.7133 36.0547 18.3928 37.4934L17.9921 37.5733L18.3928 39.2917C18.9137 41.4498 21.1176 42.8086 23.2815 42.289C25.4453 41.8095 26.8077 39.6115 26.2868 37.4534Z" fill="#D1DDE8"/>
<path d="M22.8406 40.5705C20.6768 41.09 18.4729 39.7313 17.9519 37.5732C17.431 35.4152 18.7934 33.2171 20.9573 32.6976C23.1211 32.1781 25.325 33.5368 25.846 35.6949C26.3669 37.8929 25.0445 40.051 22.8406 40.5705Z" fill="#E7EDF4"/>
<path d="M17.8717 36.654C17.8717 36.9737 17.9118 37.2535 17.9919 37.5732C18.0721 37.8929 18.1923 38.1726 18.3125 38.4524L26.0062 36.6141C26.0062 36.2943 25.9661 36.0146 25.886 35.6949C25.8058 35.3752 25.6856 35.0954 25.5654 34.8157L17.8717 36.654Z" fill="white"/>
<path d="M19.6349 47.1245L17.9519 45.3661L17.5111 45.8856C13.3838 44.327 8.05432 46.3252 4.80855 50.921C2.24399 54.5578 1.683 58.9138 2.96528 62.1909L2.48442 62.7104L4.96884 65.1882C5.20926 65.4279 5.48976 65.6278 5.77026 65.8276C10.0178 68.7849 16.4693 66.9466 20.1959 61.6713C23.7623 56.6359 23.5619 51.2008 19.6349 47.1245Z" fill="#D1DDE8"/>
<path d="M9.57704 67.2663C9.25647 67.2264 8.9359 67.1864 8.57526 67.1065L2.44436 60.3526L1.20215 58.9938L1.64293 58.5542L2.32414 59.2736L9.57704 67.2663Z" fill="#E7EDF4"/>
<path d="M12.0613 67.1464C11.8209 67.1864 11.5404 67.2264 11.3 67.2663L3.7666 58.9938L4.20739 58.5542L12.0613 67.1464Z" fill="#E7EDF4"/>
<path d="M14.1452 66.547C13.9448 66.6269 13.7044 66.7068 13.504 66.7868L6.37134 58.9938L6.81212 58.5542L14.1452 66.547Z" fill="#E7EDF4"/>
<path d="M15.9483 65.7077C15.748 65.8276 15.5877 65.9076 15.3874 66.0275L8.97595 58.9938L9.45681 58.5542L15.9483 65.7077Z" fill="#E7EDF4"/>
<path d="M17.5111 64.5887C17.3508 64.7086 17.1905 64.8285 17.0303 64.9483L11.5806 58.9538L12.0614 58.5142L17.5111 64.5887Z" fill="#E7EDF4"/>
<path d="M18.9136 63.2699C18.7533 63.4297 18.6331 63.5496 18.4728 63.7095L14.1451 58.9538L14.626 58.5142L18.9136 63.2699Z" fill="#E7EDF4"/>
<path d="M20.1558 61.7513C20.0356 61.9112 19.9154 62.111 19.7952 62.2709L14.4657 56.4761L14.9065 56.0365L20.1558 61.7513Z" fill="#E7EDF4"/>
<path d="M21.2377 59.9928C21.1576 60.1926 21.0374 60.3924 20.9172 60.5523L14.4657 53.4787L14.9065 53.0391L21.2377 59.9928Z" fill="#E7EDF4"/>
<path d="M22.1193 58.0346C22.0391 58.2344 21.959 58.4742 21.8788 58.6741L14.5057 50.6013L14.9465 50.1617L22.1193 58.0346Z" fill="#E7EDF4"/>
<path d="M22.6803 55.6768C22.6402 55.9565 22.6001 56.1963 22.5601 56.476L14.5057 47.684L14.9465 47.2444L22.6803 55.6768Z" fill="#E7EDF4"/>
<path d="M22.7203 53.7185L15.1068 45.406L14.5057 44.7266L14.9465 44.287L16.0284 45.4859L22.5601 52.6794C22.6402 52.9991 22.6803 53.3588 22.7203 53.7185Z" fill="#E7EDF4"/>
<path d="M17.9076 59.439C21.622 54.1652 21.1832 47.473 16.9275 44.4916C12.6717 41.5103 6.21059 43.3687 2.49613 48.6425C-1.21833 53.9164 -0.779527 60.6085 3.47622 63.5899C7.73198 66.5713 14.1931 64.7129 17.9076 59.439Z" fill="#E7EDF4"/>
<path d="M12.1015 44.4868C13.5841 44.4868 14.9465 44.9264 16.1086 45.7257C19.7952 48.3233 20.1558 54.1581 16.91 58.7539C14.7862 61.7912 11.5004 63.6695 8.33478 63.6695C6.85214 63.6695 5.48972 63.2299 4.32765 62.4306C0.641097 59.8329 0.280456 53.9982 3.52623 49.4024C5.65 46.3651 8.93585 44.4868 12.1015 44.4868ZM12.1015 44.0872C8.93585 44.0872 5.48972 45.9255 3.20566 49.1626C-0.160328 53.9582 0.240384 60.0727 4.08722 62.7503C5.32943 63.6295 6.81207 64.0292 8.33478 64.0292C11.5004 64.0292 14.9465 62.1908 17.2306 58.9537C20.5966 54.1581 20.1959 48.0436 16.349 45.366C15.0667 44.4868 13.6242 44.0872 12.1015 44.0872Z" fill="white"/>
<path d="M104.746 104.553L48.7666 95.0411C47.324 94.8013 46.2822 93.4825 46.4024 92.0038L53.495 12.4357C53.6152 10.957 54.8574 9.83801 56.34 9.83801L113.121 10.3176C114.764 10.3176 116.086 11.7563 115.926 13.3948L108.032 102.035C107.912 103.633 106.389 104.832 104.746 104.553Z" fill="#4DD0E1"/>
<path d="M104.466 101.715L49.4879 92.3637L56.26 16.672L111.999 17.1516L104.466 101.715Z" fill="#E7EDF4"/>
<path d="M104.466 101.715L49.4879 92.3637L56.26 16.672L111.999 17.1516L104.466 101.715Z" fill="url(#paint2_linear)"/>
<path d="M111.999 17.1516L56.2198 16.672C56.2198 16.672 48.8067 78.9758 44.0782 82.9721L99.7773 95.0812L111.999 17.1516Z" fill="white"/>
<path d="M44.1184 82.972C44.1184 82.972 37.9875 80.0147 38.5485 71.6622L88.2368 83.2917C88.2368 83.2917 98.4951 103.513 100.619 90.0057L99.8174 95.121L44.1184 82.972Z" fill="#E7EDF4"/>
<path d="M74.9353 15.1668C75.6939 15.0107 76.1821 14.2709 76.0256 13.5143C75.8692 12.7577 75.1273 12.2709 74.3687 12.4269C73.6101 12.583 73.122 13.3228 73.2784 14.0794C73.4349 14.836 74.1767 15.3228 74.9353 15.1668Z" fill="#235196"/>
<path d="M94.9551 15.1543C95.7109 14.9855 96.1864 14.2375 96.0172 13.4837C95.8479 12.7299 95.098 12.2557 94.3422 12.4245C93.5864 12.5933 93.1108 13.3412 93.2801 14.095C93.4493 14.8488 94.1992 15.323 94.9551 15.1543Z" fill="#235196"/>
<path d="M74.6526 13.7945L74.2119 18.75C74.1317 19.5493 74.7729 20.2287 75.5743 20.2287H82.2261L82.2662 19.9889C82.3463 19.2695 82.9474 18.71 83.6687 18.6701H84.3098C85.1513 18.6701 85.7924 19.3894 85.7524 20.1887H92.845C93.5663 20.1887 94.1273 19.6692 94.2074 18.9498L94.6883 13.7545" stroke="#235196" stroke-width="1.76856" stroke-miterlimit="10" stroke-linejoin="round"/>
<path d="M63.6731 29.1406L98.9759 30.0598" stroke="#E7EDF4" stroke-width="1.76856" stroke-miterlimit="10" stroke-linecap="round"/>
<path d="M63.1923 34.4158L98.495 35.3749" stroke="#E7EDF4" stroke-width="1.76856" stroke-miterlimit="10" stroke-linecap="round"/>
<path d="M62.3107 39.6912L97.6134 40.6103" stroke="#E7EDF4" stroke-width="1.76856" stroke-miterlimit="10" stroke-linecap="round"/>
<path d="M61.4291 44.9264L96.7719 45.8456" stroke="#E7EDF4" stroke-width="1.76856" stroke-miterlimit="10" stroke-linecap="round"/>
<path d="M60.5876 50.2015L95.8904 51.1207" stroke="#E7EDF4" stroke-width="1.76856" stroke-miterlimit="10" stroke-linecap="round"/>
<path d="M77.6579 63.3498C77.3775 66.427 74.6927 68.665 71.6072 68.3852C68.5217 68.1055 66.2777 65.4279 66.5582 62.3507C66.8387 59.2735 69.5235 57.0355 72.609 57.3152C75.6544 57.595 77.9384 60.3125 77.6579 63.3498Z" fill="#E7EDF4"/>
<path d="M61.7897 66.3471C60.2269 64.4688 59.5457 61.8711 59.9064 59.4733C59.9865 58.8738 60.2269 58.1944 60.7879 58.0346C61.6294 57.7948 62.2305 58.8338 62.511 59.6731C62.8716 60.7521 63.1922 61.8311 63.5529 62.9102C63.633 63.11 63.7131 63.3498 63.8734 63.4297C64.7149 63.9492 65.1156 61.5114 66.0773 61.8711C66.5983 62.0709 66.438 62.8702 66.7185 63.3098C67.0791 63.8293 67.8405 63.7494 68.4015 63.4297C68.9625 63.1499 69.4433 62.6704 70.0444 62.6304C70.6455 62.5505 71.2065 62.9102 71.8075 62.8302C72.8494 62.7103 73.6508 61.4715 74.6526 61.7512" stroke="#D1DDE8" stroke-width="1.76856" stroke-miterlimit="10" stroke-linecap="round"/>
<path d="M71.6874 96.6397L63.032 93.3227C61.4692 92.7233 59.7061 93.4826 59.065 95.0811C58.4639 96.6397 59.2253 98.3981 60.8281 99.0376L69.4835 102.355C71.0463 102.954 72.8094 102.195 73.4505 100.596C74.0516 98.9976 73.2902 97.2392 71.6874 96.6397Z" fill="white"/>
<path d="M71.6874 96.6397L67.3597 94.9612L65.1558 100.636L69.4835 102.315C71.0462 102.914 72.8094 102.155 73.4505 100.556C74.0516 98.9975 73.2902 97.2391 71.6874 96.6397Z" fill="#235196"/>
<path d="M71.6073 100.636L60.3873 96.32C59.7863 96.0802 59.3455 95.7205 58.9848 95.241C58.504 96.7596 59.3054 98.3981 60.788 98.9976L69.4434 102.315C70.9661 102.914 72.6491 102.195 73.3303 100.756C72.8094 100.876 72.2083 100.836 71.6073 100.636Z" fill="url(#paint3_linear)"/>
<path d="M84.6304 85.9696L75.6945 88.4874C74.0516 88.927 73.13 90.6454 73.5708 92.244C74.0116 93.8825 75.7346 94.8017 77.3375 94.3621L86.2734 91.8443C87.9163 91.4047 88.8379 89.6863 88.3971 88.0877C87.9563 86.4492 86.2734 85.53 84.6304 85.9696Z" fill="white"/>
<path d="M84.6304 85.9694L80.1425 87.2483L81.7854 93.1229L86.2734 91.8441C87.9163 91.4045 88.8379 89.6861 88.3971 88.0875C87.9564 86.449 86.2734 85.5298 84.6304 85.9694Z" fill="#235196"/>
<path d="M86.9547 89.2065L75.4141 92.4836C74.8131 92.6434 74.212 92.6434 73.651 92.4436C74.1719 93.9622 75.8148 94.8015 77.3776 94.3619L86.3135 91.8441C87.8763 91.4045 88.7979 89.8459 88.4774 88.2874C88.0766 88.727 87.5557 89.0467 86.9547 89.2065Z" fill="url(#paint4_linear)"/>
<path d="M38.5485 16.8318H35.463V13.7946H32.0169V16.8318H28.9314V20.2687H32.0169V23.3459H35.463V20.2687H38.5485V16.8318Z" fill="#4DD0E1"/>
<path d="M47.2841 29.1808H45.2003V27.1027H42.8762V29.1808H40.7524V31.4987H42.8762V33.5768H45.2003V31.4987H47.2841V29.1808Z" fill="#235196"/>
<path d="M129.27 23.7457H127.186V21.6676H124.862V23.7457H122.778V26.0636H124.862V28.1418H127.186V26.0636H129.27V23.7457Z" fill="#4DD0E1"/>
<path d="M117.288 85.7696L131.914 43.288C132.235 42.4088 131.674 41.4496 130.672 41.09L106.068 32.6576C105.067 32.3379 104.025 32.7375 103.744 33.6167L89.1184 76.0984C88.7978 76.9776 89.3588 77.9367 90.3606 78.2964L114.964 86.7288C115.966 87.0884 117.008 86.6488 117.288 85.7696Z" fill="#235196"/>
<path opacity="0.6" d="M113.241 40.4904L107.631 38.5721C106.629 38.2124 105.507 38.7719 105.147 39.771C104.786 40.7701 105.347 41.8891 106.349 42.2488L111.959 44.1671C112.961 44.5267 114.083 43.9672 114.443 42.9681C114.804 41.9291 114.243 40.8101 113.241 40.4904Z" fill="#235196"/>
<path opacity="0.6" d="M125.824 44.8067L120.214 42.8884C119.212 42.5287 118.09 43.0882 117.729 44.0873C117.369 45.0864 117.93 46.2054 118.931 46.5651L124.541 48.4833C125.543 48.843 126.665 48.2835 127.026 47.2844C127.386 46.2454 126.866 45.1264 125.824 44.8067Z" fill="#235196"/>
<path opacity="0.6" d="M110.957 47.0845L105.347 45.1662C104.345 44.8065 103.223 45.366 102.863 46.3651C102.502 47.3642 103.063 48.4832 104.065 48.8429L109.675 50.7612C110.677 51.1208 111.799 50.5613 112.159 49.5623C112.52 48.5632 111.959 47.4442 110.957 47.0845Z" fill="#235196"/>
<path opacity="0.6" d="M123.54 51.4008L117.93 49.4825C116.928 49.1228 115.806 49.6823 115.445 50.6814C115.085 51.6805 115.646 52.7995 116.647 53.1592L122.257 55.0775C123.259 55.4371 124.381 54.8776 124.742 53.8785C125.102 52.8794 124.581 51.7604 123.54 51.4008Z" fill="#235196"/>
<path opacity="0.6" d="M108.673 53.7186L103.063 51.8004C102.062 51.4407 100.94 52.0002 100.579 52.9993C100.218 53.9984 100.779 55.1174 101.781 55.477L107.391 57.3953C108.393 57.755 109.515 57.1955 109.875 56.1964C110.236 55.1573 109.715 54.0783 108.673 53.7186Z" fill="#235196"/>
<path opacity="0.6" d="M121.256 58.0347L115.646 56.1164C114.644 55.7567 113.522 56.3162 113.161 57.3153C112.8 58.3144 113.361 59.4334 114.363 59.7931L119.973 61.7114C120.975 62.071 122.097 61.5115 122.458 60.5124C122.818 59.4734 122.297 58.3944 121.256 58.0347Z" fill="#235196"/>
<path opacity="0.6" d="M106.309 60.5524L100.699 58.6341C99.6971 58.2744 98.5751 58.8339 98.2145 59.833C97.8538 60.8321 98.4148 61.9511 99.4166 62.3108L105.027 64.2291C106.028 64.5887 107.15 64.0292 107.511 63.0301C107.872 61.9911 107.351 60.9121 106.309 60.5524Z" fill="#235196"/>
<path opacity="0.6" d="M118.931 64.8685L113.321 62.9503C112.32 62.5906 111.198 63.1501 110.837 64.1492C110.476 65.1483 111.037 66.2673 112.039 66.627L117.649 68.5452C118.651 68.9049 119.773 68.3454 120.134 67.3463C120.494 66.3072 119.933 65.2282 118.931 64.8685Z" fill="#235196"/>
<path opacity="0.6" d="M103.985 67.3064L98.3748 65.3881C97.373 65.0285 96.251 65.588 95.8904 66.5871C95.5297 67.5862 96.0907 68.7051 97.0925 69.0648L102.702 70.9831C103.704 71.3428 104.826 70.7833 105.187 69.7842C105.548 68.7851 105.027 67.6661 103.985 67.3064Z" fill="#235196"/>
<path opacity="0.6" d="M116.567 71.6224L110.957 69.7042C109.955 69.3445 108.833 69.904 108.473 70.9031C108.112 71.9022 108.673 73.0212 109.675 73.3809L115.285 75.2991C116.287 75.6588 117.409 75.0993 117.769 74.1002C118.13 73.1011 117.609 71.9821 116.567 71.6224Z" fill="#235196"/>
<path opacity="0.6" d="M101.701 73.9403L96.0909 72.0221C95.0891 71.6624 93.9671 72.2219 93.6065 73.221C93.2458 74.2201 93.8068 75.3391 94.8086 75.6987L100.419 77.617C101.42 77.9767 102.542 77.4172 102.903 76.4181C103.264 75.379 102.743 74.3 101.701 73.9403Z" fill="#235196"/>
<path opacity="0.6" d="M114.283 78.2564L108.673 76.3381C107.671 75.9784 106.549 76.5379 106.189 77.537C105.828 78.5361 106.389 79.6551 107.391 80.0148L113.001 81.933C114.003 82.2927 115.125 81.7332 115.485 80.7341C115.846 79.6951 115.325 78.616 114.283 78.2564Z" fill="#235196"/>
<path d="M113.603 39.4114L107.993 37.4931C106.991 37.1334 105.869 37.6929 105.509 38.692C105.148 39.6911 105.709 40.8101 106.711 41.1698L112.321 43.0881C113.323 43.4477 114.445 42.8883 114.805 41.8892C115.166 40.8501 114.645 39.7311 113.603 39.4114Z" fill="white"/>
<path d="M113.642 41.9291L106.389 39.4914C106.029 39.3715 105.708 39.1317 105.468 38.8519C105.187 39.851 105.748 40.8501 106.71 41.2098L112.32 43.1281C113.281 43.4478 114.363 42.9682 114.764 42.049C114.444 42.089 114.043 42.089 113.642 41.9291Z" fill="url(#paint5_linear)"/>
<path d="M126.184 43.7276L120.574 41.8093C119.573 41.4496 118.451 42.0091 118.09 43.0082C117.729 44.0073 118.29 45.1263 119.292 45.486L124.902 47.4042C125.904 47.7639 127.026 47.2044 127.386 46.2053C127.747 45.1663 127.226 44.0473 126.184 43.7276Z" fill="white"/>
<path d="M126.264 46.2454L119.012 43.7676C118.651 43.6477 118.33 43.4079 118.09 43.1282C117.809 44.1273 118.37 45.1264 119.332 45.486L124.942 47.4043C125.904 47.724 126.986 47.2445 127.386 46.3253C127.026 46.4052 126.625 46.4052 126.264 46.2454Z" fill="url(#paint6_linear)"/>
<path d="M111.278 46.1254L105.668 44.2071C104.666 43.8474 103.544 44.4069 103.183 45.406C102.823 46.4051 103.384 47.5241 104.386 47.8838L109.996 49.8021C110.997 50.1617 112.119 49.6022 112.48 48.6031C112.881 47.5641 112.32 46.4851 111.278 46.1254Z" fill="white"/>
<path d="M111.358 48.683L104.105 46.2052C103.744 46.0853 103.424 45.8455 103.183 45.5658C102.903 46.5649 103.464 47.564 104.426 47.9237L110.036 49.8419C110.997 50.1616 112.079 49.6821 112.48 48.7629C112.119 48.8029 111.719 48.8029 111.358 48.683Z" fill="url(#paint7_linear)"/>
<path d="M123.902 50.4413L118.292 48.523C117.29 48.1634 116.168 48.7228 115.807 49.7219C115.446 50.721 116.007 51.84 117.009 52.1997L122.619 54.118C123.621 54.4777 124.743 53.9182 125.104 52.9191C125.464 51.88 124.903 50.801 123.902 50.4413Z" fill="white"/>
<path d="M123.94 52.999L116.687 50.5213C116.327 50.4014 116.006 50.1616 115.766 49.8818C115.485 50.8809 116.046 51.88 117.008 52.2397L122.618 54.158C123.58 54.4777 124.662 53.9981 125.062 53.0789C124.702 53.1189 124.301 53.1189 123.94 52.999Z" fill="url(#paint8_linear)"/>
<path d="M108.995 52.8392L103.385 50.921C102.383 50.5613 101.261 51.1208 100.901 52.1199C100.54 53.119 101.101 54.238 102.103 54.5977L107.713 56.5159C108.715 56.8756 109.837 56.3161 110.197 55.317C110.558 54.3179 109.997 53.1989 108.995 52.8392Z" fill="white"/>
<path d="M109.034 55.3967L101.781 52.919C101.42 52.7991 101.1 52.5593 100.859 52.2795C100.579 53.2786 101.14 54.2777 102.102 54.6374L107.711 56.5557C108.673 56.8754 109.755 56.3958 110.156 55.4767C109.795 55.5166 109.394 55.5166 109.034 55.3967Z" fill="url(#paint9_linear)"/>
<path d="M121.577 57.1552L115.967 55.2369C114.966 54.8772 113.844 55.4367 113.483 56.4358C113.122 57.4349 113.683 58.5539 114.685 58.9136L120.295 60.8319C121.297 61.1915 122.419 60.632 122.78 59.6329C123.14 58.5939 122.579 57.5148 121.577 57.1552Z" fill="white"/>
<path d="M121.616 59.7129L114.363 57.2351C114.003 57.1152 113.682 56.8755 113.442 56.5957C113.161 57.5948 113.722 58.5939 114.684 58.9536L120.294 60.8718C121.256 61.1916 122.337 60.712 122.738 59.7928C122.378 59.8328 121.977 59.8328 121.616 59.7129Z" fill="url(#paint10_linear)"/>
<path d="M106.671 59.5933L101.061 57.675C100.059 57.3153 98.9372 57.8748 98.5765 58.8739C98.2159 59.873 98.7769 60.992 99.7787 61.3517L105.389 63.27C106.39 63.6296 107.512 63.0701 107.873 62.071C108.234 61.032 107.673 59.913 106.671 59.5933Z" fill="white"/>
<path d="M106.71 62.1111L99.4568 59.6333C99.0962 59.5134 98.7756 59.2736 98.5352 58.9939C98.2547 59.993 98.8157 60.9921 99.7774 61.3518L105.387 63.27C106.349 63.5897 107.431 63.1102 107.832 62.191C107.471 62.2709 107.07 62.231 106.71 62.1111Z" fill="url(#paint11_linear)"/>
<path d="M119.253 63.8695L113.643 61.9513C112.641 61.5916 111.519 62.1511 111.159 63.1502C110.798 64.1493 111.359 65.2683 112.361 65.6279L117.971 67.5462C118.973 67.9059 120.095 67.3464 120.455 66.3473C120.816 65.3482 120.255 64.2292 119.253 63.8695Z" fill="white"/>
<path d="M119.292 66.4271L112.039 63.9494C111.678 63.8295 111.358 63.5897 111.117 63.3099C110.837 64.309 111.398 65.3081 112.36 65.6678L117.97 67.5861C118.931 67.9058 120.013 67.4262 120.414 66.5071C120.053 66.587 119.693 66.547 119.292 66.4271Z" fill="url(#paint12_linear)"/>
<path d="M104.347 66.3071L98.7367 64.3889C97.735 64.0292 96.613 64.5887 96.2523 65.5878C95.8917 66.5869 96.4527 67.7059 97.4545 68.0656L103.064 69.9838C104.066 70.3435 105.188 69.784 105.549 68.7849C105.909 67.7458 105.348 66.6269 104.347 66.3071Z" fill="white"/>
<path d="M104.386 68.8647L97.1326 66.387C96.772 66.2671 96.4514 66.0273 96.211 65.7476C95.9305 66.7467 96.4915 67.7458 97.4532 68.1054L103.063 70.0237C104.025 70.3434 105.107 69.8638 105.507 68.9447C105.147 68.9846 104.786 68.9846 104.386 68.8647Z" fill="url(#paint13_linear)"/>
<path d="M116.929 70.6232L111.319 68.7049C110.317 68.3452 109.195 68.9047 108.835 69.9038C108.474 70.9029 109.035 72.0219 110.037 72.3816L115.647 74.2999C116.649 74.6595 117.771 74.1 118.131 73.1009C118.492 72.0619 117.971 70.9429 116.929 70.6232Z" fill="white"/>
<path d="M116.968 73.1411L109.715 70.6634C109.354 70.5435 109.034 70.3037 108.793 70.0239C108.513 71.023 109.074 72.0221 110.036 72.3818L115.646 74.3001C116.607 74.6198 117.689 74.1402 118.09 73.221C117.729 73.301 117.369 73.301 116.968 73.1411Z" fill="url(#paint14_linear)"/>
<path d="M102.023 73.021L96.4126 71.1027C95.4109 70.7431 94.2889 71.3026 93.9282 72.3017C93.5676 73.3008 94.1286 74.4197 95.1304 74.7794L100.74 76.6977C101.742 77.0574 102.864 76.4979 103.225 75.4988C103.585 74.4597 103.064 73.3807 102.023 73.021Z" fill="white"/>
<path d="M102.061 75.5789L94.8085 73.1011C94.4479 72.9812 94.1273 72.7414 93.8869 72.4617C93.6064 73.4608 94.1674 74.4599 95.1291 74.8195L100.739 76.7378C101.701 77.0575 102.783 76.578 103.183 75.6588C102.823 75.6987 102.462 75.6987 102.061 75.5789Z" fill="url(#paint15_linear)"/>
<path d="M114.605 77.3372L108.995 75.4189C107.993 75.0592 106.871 75.6187 106.511 76.6178C106.15 77.6169 106.711 78.7359 107.713 79.0956L113.323 81.0138C114.325 81.3735 115.447 80.814 115.807 79.8149C116.168 78.7759 115.647 77.6968 114.605 77.3372Z" fill="white"/>
<path d="M114.644 79.8949L107.391 77.4171C107.03 77.2972 106.71 77.0575 106.469 76.7777C106.189 77.7768 106.75 78.7759 107.711 79.1356L113.321 81.0538C114.283 81.3736 115.365 80.894 115.766 79.9748C115.445 80.0148 115.045 80.0148 114.644 79.8949Z" fill="url(#paint16_linear)"/>
<path d="M119.973 94.0821C119.973 95.5208 118.811 96.7197 117.329 96.7197C115.846 96.7197 114.684 95.5608 114.684 94.0821C114.684 92.6434 115.846 91.4445 117.329 91.4445C118.811 91.4445 119.973 92.6434 119.973 94.0821Z" fill="#4DD0E1"/>
<path d="M18.0321 85.3301C18.0321 86.7688 16.87 87.9677 15.3874 87.9677C13.9047 87.9677 12.7427 86.8088 12.7427 85.3301C12.7427 83.8914 13.9047 82.6925 15.3874 82.6925C16.87 82.6925 18.0321 83.8914 18.0321 85.3301Z" fill="#4DD0E1"/>
<path d="M123.9 99.637C123.9 100.396 123.259 101.036 122.498 101.036C121.736 101.036 121.095 100.396 121.095 99.637C121.095 98.8777 121.736 98.2383 122.498 98.2383C123.259 98.2383 123.9 98.8777 123.9 99.637Z" fill="#4DD0E1"/>
<path d="M11.1398 80.7742C11.1398 81.5335 10.4987 82.173 9.73733 82.173C8.97598 82.173 8.33484 81.5335 8.33484 80.7742C8.33484 80.0149 8.97598 79.3755 9.73733 79.3755C10.4987 79.3755 11.1398 79.9749 11.1398 80.7742Z" fill="#4DD0E1"/>
<path opacity="0.7" d="M70.6055 114.104C103.005 114.104 129.27 113.102 129.27 111.866C129.27 110.63 103.005 109.628 70.6055 109.628C38.2061 109.628 11.9412 110.63 11.9412 111.866C11.9412 113.102 38.2061 114.104 70.6055 114.104Z" fill="#E7EDF4"/>
</g>
<defs>
<linearGradient id="paint0_linear" x1="50.1232" y1="81.5037" x2="8.82881" y2="64.0472" gradientUnits="userSpaceOnUse">
<stop offset="0.00195313" stop-color="white" stop-opacity="0"/>
<stop offset="1" stop-color="#235196"/>
</linearGradient>
<linearGradient id="paint1_linear" x1="10.7809" y1="48.9773" x2="36.3505" y2="72.311" gradientUnits="userSpaceOnUse">
<stop offset="0.00195313" stop-color="white" stop-opacity="0"/>
<stop offset="1" stop-color="#235196"/>
</linearGradient>
<linearGradient id="paint2_linear" x1="99.6846" y1="58.6789" x2="-2.09224" y2="49.5916" gradientUnits="userSpaceOnUse">
<stop offset="0.00195313" stop-color="white" stop-opacity="0"/>
<stop offset="1" stop-color="#235196"/>
</linearGradient>
<linearGradient id="paint3_linear" x1="64.5025" y1="89.3898" x2="67.6989" y2="107.595" gradientUnits="userSpaceOnUse">
<stop offset="0.00195313" stop-color="white" stop-opacity="0"/>
<stop offset="1" stop-color="#235196"/>
</linearGradient>
<linearGradient id="paint4_linear" x1="74.528" y1="84.4807" x2="88.0082" y2="97.1653" gradientUnits="userSpaceOnUse">
<stop offset="0.00195313" stop-color="white" stop-opacity="0"/>
<stop offset="1" stop-color="#235196"/>
</linearGradient>
<linearGradient id="paint5_linear" x1="108.838" y1="34.9611" x2="111.338" y2="46.4955" gradientUnits="userSpaceOnUse">
<stop offset="0.00195313" stop-color="white" stop-opacity="0"/>
<stop offset="1" stop-color="#235196"/>
</linearGradient>
<linearGradient id="paint6_linear" x1="121.425" y1="39.2748" x2="123.925" y2="50.8091" gradientUnits="userSpaceOnUse">
<stop offset="0.00195313" stop-color="white" stop-opacity="0"/>
<stop offset="1" stop-color="#235196"/>
</linearGradient>
<linearGradient id="paint7_linear" x1="106.52" y1="41.6861" x2="109.021" y2="53.2205" gradientUnits="userSpaceOnUse">
<stop offset="0.00195313" stop-color="white" stop-opacity="0"/>
<stop offset="1" stop-color="#235196"/>
</linearGradient>
<linearGradient id="paint8_linear" x1="119.108" y1="45.9996" x2="121.608" y2="57.534" gradientUnits="userSpaceOnUse">
<stop offset="0.00195313" stop-color="white" stop-opacity="0"/>
<stop offset="1" stop-color="#235196"/>
</linearGradient>
<linearGradient id="paint9_linear" x1="104.203" y1="48.411" x2="106.704" y2="59.9453" gradientUnits="userSpaceOnUse">
<stop offset="0.00195313" stop-color="white" stop-opacity="0"/>
<stop offset="1" stop-color="#235196"/>
</linearGradient>
<linearGradient id="paint10_linear" x1="116.791" y1="52.7247" x2="119.291" y2="64.2591" gradientUnits="userSpaceOnUse">
<stop offset="0.00195313" stop-color="white" stop-opacity="0"/>
<stop offset="1" stop-color="#235196"/>
</linearGradient>
<linearGradient id="paint11_linear" x1="101.886" y1="55.1365" x2="104.387" y2="66.6708" gradientUnits="userSpaceOnUse">
<stop offset="0.00195313" stop-color="white" stop-opacity="0"/>
<stop offset="1" stop-color="#235196"/>
</linearGradient>
<linearGradient id="paint12_linear" x1="114.473" y1="59.4501" x2="116.974" y2="70.9845" gradientUnits="userSpaceOnUse">
<stop offset="0.00195313" stop-color="white" stop-opacity="0"/>
<stop offset="1" stop-color="#235196"/>
</linearGradient>
<linearGradient id="paint13_linear" x1="99.5692" y1="61.8614" x2="102.07" y2="73.3957" gradientUnits="userSpaceOnUse">
<stop offset="0.00195313" stop-color="white" stop-opacity="0"/>
<stop offset="1" stop-color="#235196"/>
</linearGradient>
<linearGradient id="paint14_linear" x1="112.156" y1="66.1752" x2="114.657" y2="77.7096" gradientUnits="userSpaceOnUse">
<stop offset="0.00195313" stop-color="white" stop-opacity="0"/>
<stop offset="1" stop-color="#235196"/>
</linearGradient>
<linearGradient id="paint15_linear" x1="97.2521" y1="68.5866" x2="99.7525" y2="80.121" gradientUnits="userSpaceOnUse">
<stop offset="0.00195313" stop-color="white" stop-opacity="0"/>
<stop offset="1" stop-color="#235196"/>
</linearGradient>
<linearGradient id="paint16_linear" x1="109.839" y1="72.9002" x2="112.34" y2="84.4345" gradientUnits="userSpaceOnUse">
<stop offset="0.00195313" stop-color="white" stop-opacity="0"/>
<stop offset="1" stop-color="#235196"/>
</linearGradient>
<clipPath id="clip0">
<rect width="135" height="113.777" fill="white"/>
</clipPath>
</defs>
</svg>
