<svg width="817" height="186" fill="none" xmlns="http://www.w3.org/2000/svg">
  <rect width="816.999" height="186" rx="8" fill="url(#Group_1084__paint0_linear)"/>
  <mask id="a" maskUnits="userSpaceOnUse" x="0" y="0" width="817" height="186">
    <rect width="816.999" height="186" rx="8" fill="url(#Group_1084__paint1_linear)"/>
  </mask>
  <g style="mix-blend-mode:color-burn" opacity=".2" mask="url(#a)">
    <path opacity=".72" d="M135.288 207.296h31.413v-28.221h-31.413v28.221z" fill="#2E2E2E"/>
    <path opacity=".33" d="M203.196-8.006h-12.341v-12.16h-12.274v12.16H166.24V4.089h12.341v12.16h12.274V4.088h12.341V-8.006z" fill="#2E2E2E"/>
    <path opacity=".29" d="M151.655 112.553h-11.681v-11.51H128.36v11.51h-11.615v11.444h11.615v11.51h11.614v-11.51h11.681v-11.444z" fill="#2E2E2E"/>
    <path opacity=".63" d="M24.354 66.774H19.47v-4.812h-4.817v4.812H9.768v4.812h4.883v4.812h4.818v-4.812h4.884v-4.812z" fill="#2E2E2E"/>
    <path opacity=".44" d="M123.476 64.303H95.494v-27.57H67.711v27.57H39.73V91.68h27.98v27.572h27.783V91.679h27.982V64.303z" fill="#2E2E2E"/>
    <path opacity=".2" d="M239.559 78.414h-25.474v-25.1H188.81v25.1h-25.408v24.905h25.408v25.035h25.275v-25.035h25.474V78.414z" fill="#2E2E2E"/>
    <path opacity=".5" d="M109.617 129.785H77.808V98.377H46.131v31.408H14.257v31.213H46.13v31.342h31.677v-31.342h31.809v-31.213z" fill="#2E2E2E"/>
    <path opacity=".77" d="M114.368 183.626h-9.041v-8.908h-8.975v8.908h-9.041v8.844h9.041v8.908h8.975v-8.908h9.041v-8.844z" fill="#2E2E2E"/>
    <path opacity=".73" d="M95.362 8.77h-8.71V.252h-8.58V8.77h-8.711v8.519h8.711v8.518h8.58V17.29h8.71V8.77z" fill="#2E2E2E"/>
    <path opacity=".68" d="M17.426 128.224h-5.808v-5.722H5.811v5.722H.003v5.657h5.808v5.723h5.807v-5.723h5.808v-5.657z" fill="#2E2E2E"/>
    <path opacity=".82" d="M231.178 141.424h-5.346v-5.267h-5.279v5.267h-5.346v5.202h5.346v5.268h5.279v-5.268h5.346v-5.202z" fill="#2E2E2E"/>
    <path opacity=".59" d="M229.527 34.001h-4.949v-4.877h-4.95v4.877h-4.949v4.877h4.949v4.877h4.95v-4.877h4.949v-4.877z" fill="#2E2E2E"/>
    <path opacity=".96" d="M27.586 7.73h-8.447V-.593h-8.447V7.73H2.244v8.323h8.448v8.324h8.447v-8.323h8.447V7.73z" fill="#2E2E2E"/>
    <path opacity=".6" d="M183.332 165.224h-7.589v-7.478h-7.523v7.478h-7.59v7.413h7.59v7.478h7.523v-7.478h7.589v-7.413z" fill="#2E2E2E"/>
    <path opacity=".5" d="M190.525 28.474h-31.083V-2.154h-30.884v30.628H97.475v30.432h31.083v30.627h30.884V58.906h31.083V28.474z" fill="#2E2E2E"/>
    <path d="M223.391 137.913c-.132 0-.264 0-.33-.065-.33-.195-.396-.585-.198-.845.132-.195.33-.325.528-.325.132 0 .264 0 .33.065.132.065.264.195.264.39.066.195 0 .325-.066.455-.132.195-.33.325-.528.325zm0 .651a1.3 1.3 0 001.122-.586c.396-.585.198-1.365-.396-1.755a1.288 1.288 0 00-.66-.195c-.462 0-.858.195-1.122.585-.396.585-.198 1.365.396 1.756.198.13.396.195.66.195zM152.116 12.282c-.066 0-.066 0-.132-.065-.132-.065-.132-.195-.066-.325.066-.065.132-.13.198-.13s.066 0 .132.065c.132.065.132.195.066.325s-.132.13-.198.13zm0 .65c.264 0 .594-.13.726-.39.264-.39.132-.975-.264-1.236-.132-.13-.33-.13-.462-.13-.264 0-.594.13-.726.39-.264.39-.132.976.264 1.236.132.13.264.13.462.13zm76.421 36.675c.264 0 .528-.13.66-.39.198-.39 0-.78-.33-.975-.066-.065-.198-.065-.33-.065a.725.725 0 00-.659.39c-.198.39 0 .78.329.975a.603.603 0 00.33.065zM74.64 11.501c.265 0 .595-.195.66-.52.067-.325-.131-.715-.461-.78h-.132c-.264 0-.594.195-.66.52-.066.325.132.715.462.78h.132zm146.373 145.79a.857.857 0 01-.792-.521.624.624 0 01.066-.585c.066-.195.264-.325.462-.39.066 0 .198-.065.264-.065.33 0 .66.195.792.52.132.39-.066.911-.528 1.041h-.264zm0 .65c.132 0 .33 0 .462-.065.792-.26 1.188-1.106.924-1.821-.198-.585-.792-.975-1.386-.975-.132 0-.33 0-.462.065-.792.26-1.188 1.105-.924 1.821.198.65.792.975 1.386.975zm-76.155-51.305c.33 0 .594-.196.66-.521.132-.39-.132-.78-.462-.91h-.198c-.33 0-.594.195-.66.52-.132.39.132.781.462.911h.198zm22.635-86.096c-.33 0-.66-.195-.726-.52a.755.755 0 01.528-.975c.066 0 .132-.065.264-.065.33 0 .66.195.726.52a.624.624 0 01-.066.585c-.066.195-.264.325-.462.39-.066.065-.132.065-.264.065zm0 .65c.132 0 .264 0 .462-.064.726-.26 1.188-1.04.924-1.756-.198-.585-.726-.976-1.386-.976-.132 0-.264 0-.462.066-.726.26-1.188 1.04-.924 1.755.264.585.792.976 1.386.976zM83.748 42.714c.33 0 .594-.195.726-.455a.7.7 0 00-.462-.91c-.066 0-.198-.065-.264-.065a.812.812 0 00-.726.455.7.7 0 00.462.91c.066 0 .198.065.264.065zm94.766 33.619c.33 0 .66-.26.726-.585a.736.736 0 00-.594-.846h-.132c-.33 0-.66.26-.726.585-.066.39.198.78.594.846.066-.065.132 0 .132 0zM52.136 82.64c-.132 0-.264 0-.33-.065-.33-.195-.462-.65-.33-.975a.728.728 0 01.66-.39c.132 0 .264 0 .33.065a.49.49 0 01.33.455.624.624 0 01-.066.585c-.066.195-.33.325-.594.325zm0 .65c.528 0 .99-.26 1.254-.715.396-.65.132-1.496-.528-1.886a1.288 1.288 0 00-.66-.195c-.528 0-.99.26-1.254.716-.396.65-.132 1.495.528 1.885.198.13.396.195.66.195zm62.827-65.481c-.066 0-.198-.065-.198-.13-.066-.065-.066-.13-.066-.195s.066-.13.132-.195c.066 0 .066-.065.132-.065s.198.065.198.13c.066.065.066.13.066.195s-.066.13-.132.195c0 .065-.066.065-.132.065zm0 .65c.198 0 .33-.065.528-.13.462-.26.528-.845.264-1.235a.945.945 0 00-.792-.39c-.198 0-.33.065-.528.13-.462.26-.528.845-.264 1.235.198.26.528.39.792.39zM67.91 93.175c-.198 0-.396-.065-.528-.26-.132-.13-.132-.325-.132-.455 0-.195.132-.326.264-.456s.33-.13.396-.13c.198 0 .396.065.528.26.132.13.132.326.132.456 0 .195-.132.325-.264.455s-.33.13-.396.13zm0 .65c.264 0 .594-.065.792-.26.594-.455.66-1.236.198-1.82a1.385 1.385 0 00-1.056-.52c-.264 0-.594.064-.792.26-.594.454-.66 1.235-.198 1.82.264.39.66.52 1.056.52zm63.684-7.543c-.528 0-.99-.325-1.122-.846-.066-.325-.066-.585.132-.91.132-.26.396-.455.726-.585.132 0 .198-.065.33-.065.528 0 .99.325 1.122.845.198.65-.198 1.3-.792 1.43-.198.13-.264.13-.396.13zm0 .65c.198 0 .33 0 .528-.065.99-.26 1.518-1.3 1.254-2.276a1.9 1.9 0 00-1.782-1.3c-.198 0-.33 0-.528.065-.99.26-1.518 1.3-1.254 2.276a1.9 1.9 0 001.782 1.3zm81.766 37.781c.593 0 1.121-.455 1.121-1.106 0-.65-.462-1.17-1.121-1.17h-.066c-.594 0-1.122.455-1.122 1.105 0 .586.528 1.106 1.188 1.171zm14.319-21.459c-.066 0-.066 0-.066-.065v-.065s0-.065.066-.065.066 0 .066.065v.065s0 .065-.066.065zm0 .65h.132a.735.735 0 00.594-.845c-.066-.39-.396-.585-.726-.585h-.132a.735.735 0 00-.594.845c.066.325.396.585.726.585zM55.172 14.103a.508.508 0 01-.33-.13c-.132-.065-.198-.195-.264-.39 0-.13 0-.326.066-.456.132-.195.33-.26.528-.26.132 0 .264.065.33.13.131.065.197.195.264.39 0 .13 0 .325-.066.456-.133.13-.264.26-.528.26zm0 .65c.396 0 .792-.195 1.056-.585.395-.585.197-1.366-.33-1.756a1.346 1.346 0 00-.726-.195c-.396 0-.792.195-1.056.585-.396.585-.198 1.366.33 1.756.264.13.528.195.726.195zm73.319 23.344a.496.496 0 01-.462-.325.41.41 0 010-.39.512.512 0 01.264-.26h.132c.198 0 .396.13.462.325.066.26-.066.52-.33.585.066.065 0 .065-.066.065zm0 .65c.132 0 .264 0 .396-.064.594-.195.924-.846.726-1.43-.198-.456-.594-.781-1.056-.781-.132 0-.264 0-.396.065a1.138 1.138 0 00-.725 1.43c.198.52.593.78 1.055.78zm-70.547-7.412c-.067 0-.067 0-.133-.065 0-.065 0-.13.066-.195h.066c.067 0 .067 0 .133.065v.065c0 .065-.066.065-.133.13 0 0 .067 0 0 0zm0 .65c.131 0 .197 0 .33-.065.395-.195.593-.65.395-1.04a.812.812 0 00-.725-.456c-.133 0-.199 0-.33.065-.396.195-.594.65-.396 1.04a.81.81 0 00.725.456zm86.255 149.756c-.462 0-.858-.326-.924-.716-.132-.52.198-1.04.726-1.17h.198c.462 0 .857.325.923.715a.969.969 0 01-.725 1.171h-.198zm0 .65c.132 0 .264 0 .396-.065.857-.195 1.451-1.041 1.187-1.951-.198-.715-.857-1.235-1.583-1.235-.132 0-.264 0-.396.065-.858.195-1.452 1.04-1.188 1.95.132.716.792 1.236 1.584 1.236zm57.413-168.289c.264 0 .462-.13.594-.39.132-.325 0-.715-.33-.845-.066-.065-.198-.065-.264-.065-.264 0-.462.13-.594.39-.132.325 0 .715.33.845.066 0 .198.065.264.065zM57.877 109.626c-.33 0-.66-.195-.791-.455-.264-.455-.132-1.04.33-1.3.132-.065.33-.13.528-.13.33 0 .66.195.791.455.264.455.132 1.04-.33 1.3-.198.065-.395.13-.528.13zm0 .651c.264 0 .594-.065.858-.26.792-.456.99-1.431.528-2.211a1.634 1.634 0 00-1.386-.781c-.264 0-.593.065-.857.261-.792.455-.99 1.43-.528 2.21.264.521.792.781 1.386.781zm89.027-79.007a.508.508 0 01-.33-.13.493.493 0 01-.132-.325c0-.13.066-.26.132-.326.132-.065.264-.13.33-.13.132 0 .264.065.33.13a.493.493 0 01.132.326c0 .13-.066.26-.132.325-.132.065-.264.13-.33.13zm0 .65c.264 0 .528-.065.725-.26.462-.39.528-1.105.132-1.56-.197-.26-.527-.39-.857-.39-.264 0-.528.064-.726.26-.462.39-.528 1.105-.132 1.56.198.26.528.39.858.39zM85.133 181.351c.528 0 .99-.39.99-.975s-.396-1.041-.99-1.041h-.066c-.528 0-.99.391-.99.976 0 .52.396.975 1.056 1.04-.066 0-.066 0 0 0zm52.465-35.44c.396 0 .594-.325.594-.65s-.264-.52-.594-.52h-.066c-.33 0-.527.325-.527.65s.263.52.593.52zm-9.965 17.948c-.264 0-.462-.13-.66-.261a1.038 1.038 0 01-.198-.585c0-.195.132-.455.264-.585a.756.756 0 01.528-.195c.264 0 .462.13.66.26.33.325.264.845-.066 1.171a.756.756 0 01-.528.195zm0 .65c.33 0 .726-.13.99-.39.594-.521.66-1.496.132-2.081-.33-.325-.726-.52-1.122-.52-.33 0-.726.13-.99.39-.593.52-.659 1.495-.132 2.081.264.325.726.52 1.122.52zm27.784-80.633c-.396 0-.726-.13-1.056-.39-.264-.26-.396-.65-.396-1.04 0-.781.66-1.431 1.452-1.431.791 0 1.451.65 1.451 1.43 0 .78-.594 1.43-1.451 1.43zm0 .65c1.187 0 2.111-.91 2.111-2.08 0-1.171-.924-2.082-2.111-2.082-1.188 0-2.112.91-2.112 2.081 0 1.17.99 2.08 2.112 2.08zm28.246 98.84s-.066 0-.132-.065-.066-.065-.066-.13c0 0 0-.065.066-.13s.066-.065.132-.065c0 0 .066 0 .131.065.066.065.066.065.066.13 0 0 0 .065-.066.13 0 .065-.066.065-.131.065zm0 .651c.197 0 .395-.065.593-.261.33-.325.33-.845 0-1.105-.132-.13-.396-.26-.593-.26a.812.812 0 00-.594.26c-.33.325-.33.845 0 1.105.198.196.396.261.594.261zm-13.728-13.396c-.659 0-1.187-.52-1.187-1.171 0-.65.462-1.235 1.187-1.235h.066c.66 0 1.188.52 1.188 1.17 0 .651-.528 1.171-1.254 1.236zm0 .65h.066c1.056-.065 1.848-.91 1.782-1.951-.066-.975-.858-1.755-1.848-1.755h-.066c-1.055.065-1.847.91-1.781 1.95.066.976.858 1.756 1.847 1.756zM189.537 30.88c-.198 0-.396-.13-.396-.39 0-.13 0-.196.066-.326a.503.503 0 01.264-.13h.066c.198 0 .396.13.396.39.066.26-.132.456-.396.456zm0 .65h.132a1.04 1.04 0 00.923-1.17 1.062 1.062 0 00-1.055-.911h-.132a1.04 1.04 0 00-.924 1.17c.066.52.528.91 1.056.91zM76.424 25.937c-.462 0-.858-.26-1.056-.715-.264-.585.066-1.235.66-1.495.132-.066.264-.066.462-.066.462 0 .858.26 1.056.716.263.585-.067 1.235-.66 1.495-.198 0-.33.065-.462.065zm0 .65c.198 0 .462-.064.66-.13.923-.39 1.385-1.43.99-2.34-.264-.716-.99-1.106-1.65-1.106-.198 0-.462.065-.66.13-.924.39-1.386 1.43-.99 2.341a1.8 1.8 0 001.65 1.106zm151.585 47.47h-.066c-.132 0-.132-.13-.198-.13 0-.065-.066-.13 0-.195.066-.13.132-.195.264-.195h.066c.132 0 .132.13.198.13 0 .065.066.13 0 .195 0 .065-.132.195-.264.195zm0 .65a.97.97 0 00.924-.715c.132-.52-.132-1.04-.66-1.17-.066 0-.198-.066-.264-.066a.97.97 0 00-.924.716c-.132.52.132 1.04.66 1.17.066.065.198.065.264.065zM83.352 113.983c.264 0 .528-.13.594-.39.132-.325-.066-.716-.396-.846-.066 0-.132-.065-.264-.065-.264 0-.528.13-.594.39-.132.326.066.716.396.846.066.065.198.065.264.065zm84.999-74.195a1.16 1.16 0 01-.924-.455c-.198-.26-.33-.586-.264-.91.066-.326.198-.586.462-.781.198-.195.462-.26.792-.26.396 0 .726.195.924.455.396.52.33 1.3-.198 1.69-.264.13-.528.26-.792.26zm0 .65c.396 0 .858-.13 1.188-.39.792-.65.924-1.82.264-2.601-.396-.455-.924-.715-1.452-.715-.396 0-.858.13-1.188.39-.792.65-.924 1.82-.264 2.6.33.456.924.716 1.452.716zM61.97 52.663c.066 0 .198 0 .264-.064.264-.13.33-.456.198-.716-.132-.195-.264-.26-.462-.26-.066 0-.198 0-.264.065-.264.13-.33.455-.198.715.066.13.264.26.462.26zm27.52 16.972c-.594 0-1.056-.39-1.188-.975-.066-.325 0-.65.198-.91s.462-.456.791-.52h.264c.594 0 1.056.39 1.188.975.066.325 0 .65-.198.91s-.462.455-.791.52h-.264zm0 .65c.132 0 .263 0 .395-.064 1.056-.196 1.716-1.171 1.452-2.211a1.888 1.888 0 00-1.847-1.496c-.132 0-.264 0-.396.065-1.056.195-1.716 1.17-1.452 2.21.198.911.99 1.497 1.848 1.497zm62.561 89.347h-.132c-.198-.065-.264-.26-.198-.39s.198-.26.33-.26h.132c.132.065.198.13.198.195s.066.13 0 .26a.364.364 0 01-.33.195zm0 .65c.396 0 .792-.26.924-.65.198-.52-.132-1.041-.66-1.236-.132 0-.198-.065-.33-.065a.991.991 0 00-.924.651c-.198.52.132 1.04.66 1.235.132 0 .198.065.33.065zm30.026-146.83c-.396 0-.792-.325-.858-.715a.932.932 0 01.66-1.04h.198c.396 0 .792.325.858.715a.932.932 0 01-.66 1.04h-.198zm0 .65h.33c.858-.195 1.386-.975 1.188-1.82-.132-.716-.792-1.236-1.518-1.236h-.33c-.858.195-1.386.976-1.188 1.821.132.78.792 1.235 1.518 1.235zm-67.906 77.643h-.132c-.198-.066-.264-.26-.198-.39s.198-.26.33-.26h.132c.198.064.264.26.198.39-.066.194-.198.26-.33.26zm0 .65c.396 0 .792-.26.924-.65.198-.52-.132-1.041-.66-1.236-.132 0-.198-.065-.33-.065a.992.992 0 00-.924.65c-.198.52.132 1.04.66 1.236a.727.727 0 00.33.065zm54.18 6.762c-.396 0-.726-.195-.99-.52-.396-.52-.264-1.3.264-1.69.198-.13.462-.26.726-.26.396 0 .726.194.99.52.198.26.264.585.198.91-.066.325-.198.585-.462.78-.198.195-.462.26-.726.26zm0 .65c.396 0 .792-.13 1.122-.325a1.787 1.787 0 00.396-2.6c-.396-.521-.924-.781-1.518-.781-.396 0-.792.13-1.122.325a1.787 1.787 0 00-.396 2.601c.396.52.924.78 1.518.78zm-60.647-62.23a1.1 1.1 0 01-.792-.325c-.264-.195-.396-.52-.396-.845 0-.325.066-.65.33-.845.264-.26.528-.39.858-.39.33 0 .594.13.792.325.264.194.396.52.396.845 0 .325-.066.65-.33.845-.198.26-.528.39-.858.39zm0 .65c.528 0 .99-.194 1.386-.585.726-.78.66-1.885-.132-2.6-.33-.326-.792-.456-1.254-.456-.528 0-.99.195-1.386.585-.726.78-.66 1.886.132 2.601.33.325.792.456 1.254.456zm-22.306 49.29c-.132 0-.264-.065-.396-.195a.495.495 0 01.066-.65c.132-.065.198-.065.264-.065.132 0 .264.065.396.195.066.065.132.195.066.325 0 .13-.066.195-.198.325-.066.065-.132.065-.198.065zm0 .65c.264 0 .462-.064.66-.195.462-.39.594-1.04.198-1.56a1.16 1.16 0 00-.924-.455c-.264 0-.462.065-.66.195-.462.39-.594 1.04-.198 1.56.198.325.528.456.924.456zm31.742 93.899s-.066 0 0 0c-.066-.065-.066-.065 0-.13h.066c0 .065-.066.065-.066.13zm0 .65c.132 0 .33-.065.396-.13.33-.26.396-.65.132-.975-.132-.195-.33-.26-.594-.26-.132 0-.33.065-.396.13-.33.26-.396.65-.132.975.132.13.33.26.594.26zm5.346-68.342c.264 0 .462-.131.594-.391.132-.325 0-.65-.33-.78-.066-.065-.132-.065-.264-.065-.264 0-.462.13-.594.39-.132.325 0 .65.33.781.066 0 .198.065.264.065zm-62.364 18.792a.632.632 0 00.594-.455c.066-.325-.066-.651-.396-.716h-.132a.632.632 0 00-.594.456c-.066.325.066.65.396.715h.132zm131.064-16.061a.508.508 0 01-.33-.13c-.198-.195-.198-.456 0-.651a.508.508 0 01.33-.13c.132 0 .264.065.33.13.198.195.198.456 0 .651-.132.065-.198.13-.33.13zm0 .65c.264 0 .528-.13.792-.325.462-.39.462-1.106.066-1.561-.198-.26-.528-.325-.792-.325s-.528.13-.792.325c-.462.39-.462 1.106-.066 1.561.198.195.462.325.792.325zM215.8 59.231a.604.604 0 01-.462-.195.586.586 0 01-.198-.455c0-.195.066-.325.198-.455s.264-.195.396-.195c.198 0 .33.065.462.195s.198.26.198.455a.586.586 0 01-.198.455c-.132.195-.264.195-.396.195zm0 .65c.33 0 .594-.13.858-.325.528-.455.528-1.3.066-1.755a1.313 1.313 0 00-.924-.39c-.33 0-.594.13-.858.325-.528.455-.528 1.3-.066 1.755.198.26.594.39.924.39zm-15.969 102.222c.263 0 .527-.195.527-.455.066-.326-.132-.586-.462-.651h-.131c-.264 0-.528.195-.528.455-.066.326.132.586.462.651h.132zm9.766-56.768h-.066c-.066 0-.066-.065-.066-.13v-.13c.066-.065.132-.065.132-.065h.066c.066.065.132.13.066.26 0 .065-.066.065-.132.065zm0 .651c.33 0 .594-.13.726-.456.198-.39.066-.91-.33-1.105-.132-.065-.264-.13-.396-.13-.33 0-.594.13-.726.455-.198.39-.066.91.33 1.106.132.065.264.13.396.13zm5.478-73.221c-.132 0-.198 0-.33-.065-.528-.195-.858-.715-.66-1.3.132-.39.528-.716.99-.716.132 0 .198 0 .33.065.264.065.462.26.594.52.132.26.132.52.066.78-.132.456-.528.716-.99.716zm0 .65c.726 0 1.386-.455 1.584-1.17.264-.845-.198-1.82-1.122-2.081-.198-.065-.33-.065-.528-.065-.726 0-1.386.455-1.584 1.17-.264.846.198 1.821 1.122 2.081.198.065.396.065.528.065zm-17.29 17.298a.632.632 0 01-.594-.456.599.599 0 01.462-.715h.132c.264 0 .528.195.594.455a.599.599 0 01-.462.716h-.132zm0 .65c.132 0 .198 0 .33-.065.66-.195 1.122-.846.924-1.496-.132-.585-.66-.975-1.254-.975-.132 0-.198 0-.33.065-.66.195-1.122.845-.924 1.495.132.586.66.976 1.254.976zm-22.702 6.242a.508.508 0 01-.33-.13c-.066-.065-.132-.195-.066-.26 0-.195.198-.39.396-.39.132 0 .198.065.264.13s.132.195.066.26c0 .26-.132.39-.33.39zm0 .65c.528 0 .99-.39 1.056-.975a.998.998 0 00-.99-1.105h-.066c-.528 0-.99.39-1.056.975a.998.998 0 00.99 1.106h.066zM100.51 54.81c.264 0 .462-.13.593-.39.132-.326-.065-.651-.329-.781-.066 0-.132-.065-.198-.065-.264 0-.462.13-.594.39-.132.325.066.65.33.78.066.065.132.065.198.065zm69.029 62.489c-.066 0-.132 0-.198-.065s-.132-.13-.132-.195 0-.13.066-.195.132-.13.198-.13.132 0 .198.065c.132.13.132.26.066.39 0 .065-.066.13-.198.13zm0 .651c.264 0 .528-.13.726-.325a.919.919 0 00-.132-1.301 1.076 1.076 0 00-.594-.195c-.264 0-.528.13-.726.325a.919.919 0 00.132 1.301c.198.13.396.195.594.195zm45.8-31.798c-.198 0-.396-.065-.528-.26-.198-.26-.132-.715.132-.91.132-.065.264-.13.396-.13.198 0 .396.065.528.26.198.26.132.715-.132.91-.132.065-.264.13-.396.13zm0 .65c.264 0 .528-.064.792-.26.594-.455.66-1.235.264-1.82a1.385 1.385 0 00-1.056-.52c-.264 0-.528.065-.792.26-.594.455-.66 1.235-.264 1.82.264.326.66.52 1.056.52zm-96.482-22.824c-.066 0-.066 0-.132-.065 0-.065 0-.13.132-.13.066 0 .066 0 .132.065v.065c-.066.065-.066.065-.132.065zm0 .65h.132c.396-.065.726-.455.594-.845-.066-.39-.396-.65-.726-.65h-.132c-.396.065-.726.455-.594.845.066.455.33.65.726.65zm14.452-49.68c-.33 0-.594-.195-.66-.455-.132-.39 0-.78.396-.976.066-.065.198-.065.264-.065.33 0 .594.196.66.456.132.39 0 .78-.396.975-.066 0-.132.065-.264.065zm0 .65c.198 0 .33-.065.528-.13.725-.26 1.055-1.105.791-1.82-.198-.52-.725-.846-1.319-.846-.198 0-.33.065-.528.13-.726.26-1.056 1.106-.792 1.82.264.521.792.846 1.32.846zm-38.871 2.016c.33 0 .594-.195.66-.52a.675.675 0 00-.528-.78h-.132c-.33 0-.594.195-.66.52a.675.675 0 00.528.78h.132zm8.184 112.106h-.198a1.257 1.257 0 01-.726-.455c-.198-.26-.264-.52-.198-.78.066-.52.528-.911 1.056-.911h.198c.594.065.99.651.924 1.236-.066.52-.528.91-1.056.91zm0 .651c.858 0 1.584-.586 1.716-1.431.132-.975-.462-1.821-1.452-2.016h-.264c-.858 0-1.584.585-1.716 1.431-.131.975.462 1.82 1.452 2.016h.264zm16.829 6.177c-.066-.065-.066-.13 0-.13 0 0 .066 0 .066.065 0 0 0 .065-.066.065 0 0 .066 0 0 0zm0 .65c.066 0 .198 0 .264-.065.396-.13.528-.585.396-.91-.132-.26-.396-.455-.66-.455-.066 0-.198 0-.264.065-.396.13-.528.585-.396.91a.687.687 0 00.66.455zm33.59-83.689a.364.364 0 01-.33-.196.196.196 0 010-.26c0-.065.066-.13.198-.195.066 0 .132-.065.132-.065.132 0 .264.065.33.195.066.196 0 .39-.132.456-.066.065-.132.065-.198.065zm0 .65c.132 0 .33-.065.462-.13.528-.26.726-.846.462-1.366a1.056 1.056 0 00-.924-.52c-.132 0-.33.065-.462.13-.528.26-.726.845-.462 1.366.198.325.594.52.924.52zm41.246 83.233c-.132 0-.264 0-.396-.065-.198-.065-.33-.26-.396-.455s-.066-.455.066-.65a.812.812 0 01.726-.455c.132 0 .264 0 .396.065.198.065.33.26.396.455s.066.455-.066.65a.812.812 0 01-.726.455zm0 .651c.528 0 1.056-.326 1.32-.846.396-.715.066-1.625-.66-1.951-.198-.13-.462-.13-.66-.13-.528 0-1.056.326-1.32.846-.396.715-.066 1.625.66 1.95.198.066.396.131.66.131zm-113.114-4.877c.264 0 .528-.195.528-.455.066-.325-.132-.586-.462-.651h-.132c-.264 0-.528.195-.528.456-.066.325.132.585.462.65h.132zm21.845 24.515c-.528 0-.99-.325-1.188-.78-.132-.326-.132-.651-.066-.976.132-.325.33-.585.66-.715.198-.065.33-.13.528-.13.528 0 .99.325 1.188.78.131.325.131.65.065.976-.131.325-.329.585-.659.715-.198.065-.396.13-.528.13zm0 .65c.264 0 .528-.065.792-.195.989-.455 1.385-1.626.989-2.536-.33-.715-1.055-1.105-1.781-1.105a1.78 1.78 0 00-.792.195c-.99.455-1.386 1.625-.99 2.536.33.65.99 1.105 1.782 1.105zm60.185-21.133c.132 0 .264-.065.396-.13.264-.195.33-.65.066-.91-.132-.13-.33-.26-.528-.26-.132 0-.264.065-.396.13-.264.195-.33.65-.066.91.132.195.33.26.528.26zm-64.21-36.74c-.066 0-.198 0-.264-.065a.79.79 0 01-.33-.325c-.067-.13-.067-.325 0-.52.132-.26.33-.39.594-.39.066 0 .198 0 .263.065a.79.79 0 01.33.325c.066.13.066.325 0 .52-.066.26-.33.39-.593.39zm0 .65c.527 0 .99-.325 1.187-.78a1.313 1.313 0 00-.726-1.69 1.257 1.257 0 00-.527-.13c-.529 0-.99.325-1.188.78-.264.65.066 1.43.725 1.69.198.13.33.13.529.13zM199.5 73.276c-.396 0-.726-.26-.792-.65-.066-.195 0-.455.132-.65s.33-.325.528-.39h.198a.78.78 0 01.791.65c.066.195 0 .455-.132.65a1.02 1.02 0 01-.527.39h-.198zm0 .65c.132 0 .198 0 .33-.064.791-.195 1.319-.976 1.121-1.756-.132-.715-.792-1.17-1.451-1.17-.132 0-.198 0-.33.064-.792.196-1.32.976-1.122 1.756.198.716.792 1.17 1.452 1.17zm-58.603 53.128c-.066-.065 0-.065 0-.065s.066 0 0 .065c.066 0 .066 0 0 0zm0 .65h.198c.396-.13.594-.455.462-.845-.066-.325-.396-.52-.66-.52h-.198c-.396.13-.594.455-.462.845.066.325.396.52.66.52zm82.096 51.826c-.066 0-.066 0-.132-.065s-.066-.13-.066-.13c0-.065 0-.13.066-.195s.132-.065.198-.065.066 0 .132.065.066.13.066.13c0 .065 0 .13-.066.195s-.132.065-.198.065zm0 .651c.264 0 .528-.13.726-.326.33-.39.198-.91-.198-1.235a.756.756 0 00-.528-.195c-.264 0-.528.13-.726.325-.33.39-.198.91.198 1.235.132.196.33.196.528.196zM140.437 65.994a.727.727 0 01-.66-.39c-.066-.196-.066-.39 0-.52a.59.59 0 01.396-.39c.066-.066.198-.066.33-.066.264 0 .528.13.66.39.066.195.066.39 0 .52a.59.59 0 01-.396.39.727.727 0 01-.33.066zm0 .65c.198 0 .396-.065.594-.13.66-.325.99-1.106.66-1.82-.264-.521-.726-.781-1.254-.781-.198 0-.396.065-.594.13-.66.325-.99 1.105-.66 1.82.198.52.726.78 1.254.78zm50.616 28.676c.396 0 .66-.26.726-.65.066-.39-.264-.715-.66-.78h-.066c-.396 0-.66.26-.726.65-.066.39.264.716.66.78h.066zM54.447 153.324h-.067c-.33-.065-.528-.325-.462-.65a.576.576 0 01.595-.455h.065c.132 0 .264.13.396.195.066.13.132.26.132.39-.132.325-.396.52-.66.52zm0 .651c.593 0 1.121-.456 1.187-1.041.066-.65-.396-1.3-1.056-1.365h-.198c-.594 0-1.121.455-1.187 1.04-.066.65.396 1.301 1.056 1.366h.197zm26.528.779c.462 0 .858-.325.858-.78s-.33-.845-.792-.845-.858.325-.858.78c-.066.455.264.845.792.845 0 0-.066 0 0 0zm143.34-138.506c.066 0 .132 0 .198-.065.264-.13.396-.39.33-.715-.066-.195-.264-.325-.528-.325-.066 0-.132 0-.198.065-.264.13-.396.39-.33.715.132.196.33.325.528.325zM63.553 169.971c-.462 0-.858-.325-.924-.845 0-.26.066-.52.198-.715.132-.195.396-.325.66-.325h.132c.462 0 .858.325.924.845a.949.949 0 01-.792 1.04h-.198zm0 .651h.198c.858-.13 1.517-.911 1.386-1.756-.133-.78-.792-1.366-1.584-1.366h-.198c-.858.13-1.518.911-1.386 1.756.066.78.792 1.366 1.584 1.366zm116.083-20.419s-.066 0 0 0c-.066-.065 0-.065 0-.065s.066 0 0 .065c0 0 .066 0 0 0zm0 .651h.132c.396-.066.594-.456.528-.846-.066-.325-.396-.585-.66-.585h-.132c-.396.065-.594.455-.528.845.066.39.33.586.66.586zM66.26 71.781c.33 0 .594-.26.66-.585.066-.39-.198-.715-.594-.715h-.066c-.33 0-.594.26-.66.585-.066.39.198.715.594.715h.066z" fill="#B5B5B5"/>
    <path opacity=".72" d="M109.221 85.177h15.575v15.411h15.574V85.177h15.641V69.83H140.37V54.484h-15.574V69.83h-15.575v15.347z" fill="#EBEBEB"/>
    <path opacity=".83" d="M98.794 21.906h4.092v4.032h4.092v-4.032h4.091v-4.031h-4.091v-4.032h-4.092v4.032h-4.091v4.031z" fill="#EBEBEB"/>
    <path opacity=".81" d="M144.858 18.525h2.31V20.8h2.31v-2.276h2.376v-2.341h-2.376v-2.276h-2.31v2.276h-2.31v2.34z" fill="#EBEBEB"/>
    <path opacity=".33" d="M106.779 193.186h6.072v5.982h6.071v-5.982h6.138v-5.983h-6.138v-6.047h-6.071v6.047h-6.072v5.983z" fill="#EBEBEB"/>
    <path opacity=".73" d="M199.038 88.883h1.98v1.951h1.98v-1.95h1.98v-1.951h-1.98v-1.951h-1.98v1.95h-1.98v1.951z" fill="#EBEBEB"/>
    <path opacity=".54" d="M115.756 54.875h2.639v2.6h2.574v-2.6h2.706v-2.602h-2.706v-2.6h-2.574v2.6h-2.639v2.602z" fill="#EBEBEB"/>
    <path opacity=".29" d="M132.254 133.491h5.807v5.723h5.741v-5.723h5.742v-5.657h-5.742v-5.657h-5.741v5.657h-5.807v5.657z" fill="#EBEBEB"/>
    <path opacity=".63" d="M195.277 156.186h2.442v2.341h2.375v-2.341h2.442v-2.406h-2.442v-2.341h-2.375v2.341h-2.442v2.406z" fill="#EBEBEB"/>
    <path opacity=".44" d="M146.243 157.421h13.792v13.591h13.793v-13.591h13.859v-13.59h-13.859v-13.656h-13.793v13.656h-13.792v13.59z" fill="#EBEBEB"/>
    <path opacity=".63" d="M88.763 150.399h12.605v12.42h12.539v-12.42h12.538v-12.29h-12.538v-12.42h-12.539v12.42H88.763v12.29z" fill="#EBEBEB"/>
    <path opacity=".78" d="M111.07 43.17h16.96v16.647h16.829V43.17h16.894V26.588h-16.894V9.876H128.03v16.712h-16.96V43.17z" fill="#EBEBEB"/>
    <path opacity=".5" d="M153.041 124.973h15.772v15.541h15.707v-15.541h15.772v-15.411H184.52V94.02h-15.707v15.542h-15.772v15.411z" fill="#EBEBEB"/>
    <path opacity=".47" d="M165.25 73.472h13.066v12.876h13.001V73.472h13.067v-12.81h-13.067V47.787h-13.001v12.875H165.25v12.81z" fill="#EBEBEB"/>
    <path opacity=".27" d="M92.063 49.413h2.31v2.275h2.244v-2.276h2.31v-2.21h-2.31v-2.276h-2.244v2.276h-2.31v2.21z" fill="#EBEBEB"/>
    <path opacity=".38" d="M175.545 25.678h2.112v2.08h2.046v-2.08h2.111v-2.081h-2.111v-2.016h-2.046v2.016h-2.112v2.08z" fill="#EBEBEB"/>
    <path opacity=".77" d="M150.731 98.312h4.488v4.422h4.421v-4.422h4.488v-4.357h-4.488v-4.422h-4.421v4.422h-4.488v4.357z" fill="#EBEBEB"/>
    <path opacity=".73" d="M160.168 184.863h4.289v4.226h4.224v-4.226h4.29v-4.162h-4.29v-4.227h-4.224v4.227h-4.289v4.162z" fill="#EBEBEB"/>
    <path opacity=".68" d="M198.708 125.753h2.904v2.862h2.838v-2.862h2.904v-2.796h-2.904v-2.861h-2.838v2.861h-2.904v2.796z" fill="#EBEBEB"/>
    <path opacity=".84" d="M94.77 83.681h2.837v2.731h2.772v-2.73h2.771V80.95h-2.771v-2.73h-2.772v2.73h-2.838v2.731z" fill="#EBEBEB"/>
    <path opacity=".82" d="M192.241 38.228h7.985v7.868h7.92v-7.868h7.985v-7.803h-7.985v-7.868h-7.92v7.868h-7.985v7.803zM92.92 119.251h2.64v2.601h2.64v-2.601h2.64v-2.601H98.2v-2.601h-2.64v2.601h-2.64v2.601z" fill="#EBEBEB"/>
    <path opacity=".59" d="M93.713 172.377h2.442v2.406h2.441v-2.406h2.442v-2.406h-2.442v-2.406h-2.442v2.406h-2.441v2.406z" fill="#EBEBEB"/>
    <path opacity=".96" d="M193.693 185.383h4.157v4.161h4.224v-4.161h4.157v-4.097h-4.157v-4.097h-4.224v4.097h-4.157v4.097z" fill="#EBEBEB"/>
    <path opacity=".6" d="M116.614 107.416h3.762v3.707h3.695v-3.707h3.762v-3.641h-3.762v-3.707h-3.695v3.707h-3.762v3.641z" fill="#EBEBEB"/>
    <path opacity=".5" d="M113.048 175.174h15.376v15.151h15.311v-15.151h15.376v-15.087h-15.376v-15.151h-15.311v15.151h-15.376v15.087z" fill="#EBEBEB"/>
  </g>
  <defs>
    <linearGradient id="Group_1084__paint0_linear" x1="0" y1="0" x2="817.519" y2="183.688" gradientUnits="userSpaceOnUse">
      <stop stop-color="#3075E3"/>
      <stop offset="1" stop-color="#D1C6F2"/>
    </linearGradient>
    <linearGradient id="Group_1084__paint1_linear" x1="0" y1="0" x2="817.519" y2="183.688" gradientUnits="userSpaceOnUse">
      <stop stop-color="#004AC1"/>
      <stop offset="1" stop-color="#D1C6F2"/>
    </linearGradient>
  </defs>
</svg>
