<svg width="160" height="160" viewBox="0 0 160 160" fill="none" xmlns="http://www.w3.org/2000/svg">
<path d="M114.25 89.2501C114.625 88.8751 114.625 88.3126 114.25 87.9376C114.125 87.8126 113.938 87.6876 113.75 87.6876L91.5001 84.4376C91.1876 84.3751 90.9376 84.1876 90.8126 83.9376L80.8126 63.7501C80.5626 63.3126 80.0626 63.1251 79.5626 63.3126C79.3751 63.3751 79.2501 63.5626 79.1251 63.7501L69.1876 83.9376C69.0626 84.1876 68.8126 84.3751 68.5001 84.4376L46.2501 87.6876C45.7501 87.7501 45.4376 88.2501 45.5001 88.7501C45.5001 88.9376 45.6251 89.1251 45.7501 89.2501L61.8751 104.938C62.0626 105.125 62.1876 105.438 62.1251 105.75L58.3126 127.938C58.2501 128.438 58.5626 128.875 59.0626 129C59.2501 129.063 59.4376 129 59.6251 128.938L79.5626 118.438C79.8126 118.313 80.1251 118.313 80.4376 118.438L100.375 128.938C100.813 129.188 101.375 129 101.625 128.563C101.688 128.375 101.75 128.188 101.688 128L97.8751 105.813C97.8126 105.5 97.9376 105.188 98.1251 105L114.25 89.2501Z" fill="#06D6A0"/>
<path d="M147.501 85.75C147.813 85.4375 147.813 85 147.501 84.6875C147.376 84.5625 147.251 84.5 147.063 84.5L129.188 81.875C128.938 81.8125 128.751 81.6875 128.626 81.5L120.626 65.3125C120.438 64.9375 120.001 64.8125 119.626 65C119.501 65.0625 119.376 65.1875 119.313 65.3125L111.313 81.5C111.188 81.6875 111.001 81.875 110.751 81.875L92.876 84.5C92.8135 84.5 92.6885 84.5625 92.626 84.5625L113.688 87.625C114.188 87.6875 114.501 88.1875 114.438 88.6875C114.438 88.875 114.313 89.0625 114.188 89.1875L105.126 98.0625L105.438 98.375C105.626 98.5625 105.688 98.8125 105.626 99L102.563 116.812C102.501 117.187 102.751 117.562 103.188 117.687C103.376 117.687 103.501 117.687 103.626 117.625L119.626 109.187C119.813 109.062 120.063 109.062 120.313 109.187L136.313 117.625C136.688 117.812 137.126 117.687 137.313 117.312C137.376 117.187 137.438 117 137.376 116.875L134.313 99.0625C134.251 98.8125 134.376 98.5625 134.501 98.4375L147.501 85.75Z" fill="#3BBC9A"/>
<path d="M54.3146 99C54.2521 98.75 54.3771 98.5 54.5021 98.375L54.8146 98.0625L45.7521 89.1875C45.3771 88.8125 45.3771 88.25 45.7521 87.875C45.8771 87.75 46.0646 87.625 46.2521 87.625L67.3146 84.5625C67.2521 84.5 67.1896 84.5 67.0646 84.5L49.1896 81.875C48.9396 81.8125 48.7521 81.6875 48.6271 81.5L40.6271 65.3125C40.4396 64.9375 40.0021 64.8125 39.6271 65C39.5021 65.0625 39.3771 65.1875 39.3146 65.3125L31.3146 81.5C31.1896 81.6875 31.0021 81.875 30.7521 81.875L12.8771 84.5C12.5021 84.5625 12.1896 84.9375 12.2521 85.3125C12.2521 85.5 12.3771 85.625 12.4396 85.75L25.3771 98.375C25.5646 98.5625 25.6271 98.8125 25.5646 99L22.5021 116.812C22.4396 117.187 22.6896 117.562 23.1271 117.687C23.3146 117.687 23.4396 117.687 23.5646 117.625L39.5646 109.187C39.7521 109.062 40.0021 109.062 40.2521 109.187L56.2521 117.625C56.6271 117.812 57.0646 117.687 57.2521 117.312C57.3146 117.187 57.3771 117 57.3146 116.875L54.3146 99Z" fill="#3BBC9A"/>
<path d="M158.313 76.625C158.501 76.4375 158.501 76.125 158.313 75.9375C158.251 75.875 158.126 75.8125 158.063 75.8125L146.563 74.125C146.438 74.125 146.251 74 146.188 73.875L141.063 63.5C140.938 63.25 140.688 63.1875 140.438 63.3125C140.376 63.375 140.251 63.4375 140.251 63.5L135.126 73.875C135.063 74 134.938 74.125 134.751 74.125L125.688 75.4375L128.688 81.5C128.813 81.6875 129.001 81.875 129.251 81.875L147.126 84.5C147.501 84.5625 147.813 84.9375 147.751 85.3125C147.751 85.5 147.626 85.625 147.563 85.75L141.313 91.875L151.188 97.0625C151.438 97.1875 151.688 97.125 151.813 96.875C151.876 96.8125 151.876 96.6875 151.876 96.5625L149.938 85.125C149.938 85 149.938 84.8125 150.063 84.6875L158.313 76.625Z" fill="#59D3B4"/>
<path d="M25.2504 74.1875C25.1254 74.1875 24.9379 74.0625 24.8754 73.9375L19.7504 63.5625C19.6254 63.3125 19.3754 63.25 19.1254 63.375C19.0629 63.4375 18.9379 63.5 18.9379 63.5625L13.8129 73.9375C13.7504 74.0625 13.6254 74.1875 13.4379 74.1875L1.93789 75.875C1.68789 75.9375 1.50039 76.125 1.56289 76.4375C1.56289 76.5625 1.62539 76.625 1.68789 76.6875L10.0004 84.8125C10.1254 84.9375 10.1879 85.0625 10.1254 85.25L8.18789 96.6875C8.12539 96.9375 8.31289 97.1875 8.56289 97.25C8.68789 97.25 8.75039 97.25 8.87539 97.1875L18.7504 91.875L12.5004 85.75C12.1879 85.4375 12.1879 85 12.5004 84.6875C12.6254 84.5625 12.7504 84.5 12.9379 84.5L30.8129 81.875C31.0629 81.8125 31.2504 81.6875 31.3754 81.5L34.3754 75.4375L25.2504 74.1875Z" fill="#59D3B4"/>
<path d="M37.6885 127.063H36.5635V125.938C36.5635 125.063 35.876 124.375 35.001 124.375C34.126 124.375 33.4385 125.063 33.4385 125.938V127.063H32.3135C31.4385 127.063 30.751 127.75 30.751 128.625C30.751 129.5 31.4385 130.188 32.3135 130.188H33.4385V131.313C33.4385 132.188 34.126 132.875 35.001 132.875C35.876 132.875 36.5635 132.188 36.5635 131.313V130.188H37.6885C38.5635 130.188 39.251 129.5 39.251 128.625C39.251 127.75 38.5635 127.063 37.6885 127.063Z" fill="#00ABE3"/>
<path d="M73.501 135.625C73.4385 135.437 73.376 135.25 73.251 135.062C73.1885 135 73.126 134.875 73.0635 134.812C72.4385 134.25 71.501 134.25 70.876 134.812C70.8135 134.875 70.751 134.937 70.6885 135.062C70.626 135.125 70.5635 135.25 70.5635 135.312C70.501 135.437 70.501 135.5 70.501 135.625C70.4385 135.812 70.4385 136.062 70.501 136.25C70.501 136.375 70.5635 136.437 70.5635 136.562C70.626 136.625 70.626 136.75 70.6885 136.812C70.751 136.875 70.8135 137 70.876 137.062C71.501 137.687 72.4385 137.687 73.0635 137.062C73.126 137 73.1885 136.937 73.251 136.812C73.3135 136.75 73.376 136.625 73.376 136.562C73.4385 136.5 73.4385 136.375 73.4385 136.25C73.5635 136.062 73.5635 135.812 73.501 135.625Z" fill="#EE4266"/>
<path d="M99.751 10.875C99.6885 10.6875 99.626 10.5 99.501 10.3125C99.4385 10.25 99.376 10.125 99.3135 10.0625C98.6885 9.5 97.751 9.5 97.126 10.0625C97.0635 10.125 97.001 10.1875 96.9385 10.3125C96.876 10.375 96.8135 10.5 96.8135 10.5625C96.751 10.6875 96.751 10.75 96.751 10.875C96.6885 11.0625 96.6885 11.3125 96.751 11.5C96.751 11.625 96.8135 11.6875 96.8135 11.8125C96.876 11.875 96.876 12 96.9385 12.0625C97.001 12.125 97.0635 12.25 97.126 12.3125C97.751 12.9375 98.6885 12.9375 99.3135 12.3125C99.376 12.25 99.4385 12.1875 99.501 12.0625C99.5635 12 99.626 11.875 99.626 11.8125C99.6885 11.75 99.6885 11.625 99.6885 11.5C99.8135 11.25 99.8135 11.0625 99.751 10.875Z" fill="#FFE74C"/>
<path d="M120.188 21.8125C117.626 21.3125 115.688 19.3125 115.188 16.8125C115.188 16.75 115.126 16.6875 115.063 16.6875C115.001 16.6875 115.001 16.75 114.938 16.8125C114.438 19.375 112.438 21.3125 109.938 21.8125C109.876 21.8125 109.813 21.875 109.813 21.9375C109.813 22 109.876 22 109.938 22.0625C112.501 22.5625 114.438 24.5625 114.938 27.0625C114.938 27.125 115.001 27.1875 115.063 27.1875C115.126 27.1875 115.126 27.125 115.188 27.0625C115.688 24.5 117.688 22.5625 120.188 22.0625C120.251 22.0625 120.313 22 120.313 21.9375C120.313 21.875 120.251 21.8125 120.188 21.8125Z" fill="#06D6A0"/>
<path d="M60.8135 145.062C58.251 144.562 56.3135 142.562 55.8135 140.062C55.8135 140 55.751 139.937 55.6885 139.937C55.626 139.937 55.626 140 55.5635 140.062C55.0635 142.625 53.0635 144.562 50.5635 145.062C50.501 145.062 50.4385 145.125 50.4385 145.187C50.4385 145.25 50.501 145.25 50.5635 145.312C53.126 145.812 55.0635 147.812 55.5635 150.312C55.5635 150.375 55.626 150.437 55.6885 150.437C55.751 150.437 55.751 150.375 55.8135 150.312C56.3135 147.75 58.3135 145.812 60.8135 145.312C60.876 145.312 60.9385 145.25 60.9385 145.187C60.876 145.125 60.876 145.062 60.8135 145.062Z" fill="#E56399"/>
<path d="M80 30.875C79.125 30.875 78.4375 31.5625 78.4375 32.4375V41.75C78.4375 42.625 79.125 43.3125 80 43.3125C80.875 43.3125 81.5625 42.625 81.5625 41.75V32.4375C81.5625 31.5625 80.875 30.875 80 30.875Z" fill="#333333"/>
<path d="M98.5638 32.8749C97.7513 32.6874 96.8763 33.1874 96.6888 34.0624L94.5638 43.1249C94.3763 43.9374 94.8763 44.8124 95.6888 44.9999C96.5013 45.1874 97.3763 44.6874 97.5638 43.8749L99.6888 34.8124C99.9388 33.8749 99.4388 33.0624 98.5638 32.8749Z" fill="#333333"/>
<path d="M115.752 38.625C115.002 38.1875 114.064 38.5 113.627 39.25L109.189 47.4375C108.752 48.1875 109.064 49.125 109.814 49.5625C110.564 50 111.502 49.6875 111.939 48.9375L116.377 40.75C116.752 39.9375 116.502 39 115.752 38.625Z" fill="#333333"/>
<path d="M130.25 50.9375C129.75 50.1875 128.813 50 128.063 50.5L120.313 55.625C119.563 56.0625 119.375 57.0625 119.813 57.8125C120.25 58.5625 121.25 58.75 122 58.3125C122 58.3125 122 58.3125 122.063 58.3125L129.813 53.1875C130.5 52.625 130.688 51.6875 130.25 50.9375Z" fill="#333333"/>
<path d="M65.4398 43.0626L63.3148 34.0001C63.1273 33.1876 62.2523 32.6251 61.4398 32.8751C60.6273 33.0626 60.1273 33.9376 60.3148 34.7501L62.3773 43.7501C62.5648 44.5626 63.3773 45.1251 64.2523 44.9376C65.1273 44.7501 65.6273 43.9376 65.4398 43.0626Z" fill="#333333"/>
<path d="M50.8123 47.375L46.3748 39.1875C45.9373 38.4375 44.9998 38.125 44.2498 38.5625C43.4998 39 43.1873 39.9375 43.6248 40.6875L48.0623 48.875C48.4998 49.625 49.4373 49.9375 50.1873 49.5C50.9373 49.125 51.1873 48.1875 50.8123 47.375Z" fill="#333333"/>
<path d="M39.6897 55.625L31.9397 50.5C31.1897 50 30.2522 50.25 29.7522 50.9375C29.2522 51.6875 29.5022 52.625 30.1897 53.125L37.9397 58.25C38.6272 58.75 39.6272 58.5625 40.1272 57.8125C40.6272 57.125 40.4397 56.125 39.6897 55.625Z" fill="#333333"/>
</svg>
