<svg width="300" height="184" viewBox="0 0 300 184" fill="none" xmlns="http://www.w3.org/2000/svg">
<path opacity="0.3" d="M288.886 176.189C294.666 162.609 297.867 147.876 297.956 132.432C298.578 61.7805 234.47 3.82165 154.624 3.11159C74.7786 2.40152 9.60372 59.029 8.8924 129.769C8.71457 145.124 11.6488 159.947 17.1615 173.704L288.709 176.278L288.886 176.189Z" fill="#B7D3F2"/>
<path d="M219.621 178.408H179.876C179.521 178.408 179.254 178.142 179.254 177.787C179.254 177.432 179.521 177.166 179.876 177.166H219.621C219.977 177.166 220.244 177.432 220.244 177.787C220.244 178.142 219.977 178.408 219.621 178.408Z" fill="#52596D"/>
<path d="M206.549 175.657H166.804C166.448 175.657 166.182 175.39 166.182 175.035C166.182 174.68 166.448 174.414 166.804 174.414H206.549C206.905 174.414 207.172 174.68 207.172 175.035C207.172 175.39 206.905 175.657 206.549 175.657Z" fill="#52596D"/>
<path d="M150.444 106.16C150.444 106.16 144.932 140.509 153.556 142.018C162.181 143.615 188.767 139.089 189.122 139.089C189.478 139.089 195.613 146.367 183.699 150.272C174.451 153.29 156.491 153.112 148.666 152.935C146.443 152.846 145.021 152.846 144.932 152.846C144.576 152.935 141.375 149.473 141.375 149.473L150.444 106.071V106.16Z" fill="#194560"/>
<path d="M183.7 74.3843C183.522 74.3843 174.364 78.9109 179.254 87.7867C184.144 96.6625 191.969 136.248 186.901 143.704C181.832 151.16 149.645 154.799 146.622 146.722C143.599 138.645 151.512 109.799 151.512 109.799C151.512 109.799 95.6736 108.378 93.8953 109.799C92.2059 111.219 72.0222 127.55 72.9113 149.651L130.706 150.716C130.706 150.716 133.018 161.722 145.911 163.586C158.803 165.45 187.968 163.408 192.236 155.598C196.503 147.787 214.642 135.45 212.953 122.225C211.263 109 184.322 74.3843 184.322 74.3843H183.7Z" fill="#00ABE3"/>
<path d="M93.5387 115.39C92.9163 115.39 92.4717 115.39 92.2049 115.39C90.4266 115.213 91.2269 113.26 91.4936 112.727L99.9406 110.508L150.622 110.242C150.622 110.242 150.711 111.396 148.577 113.171C147.955 113.704 144.131 113.881 138.885 113.881C125.904 113.881 104.475 112.727 104.475 112.727C104.475 112.727 103.942 114.414 103.764 114.769C103.586 115.035 96.8285 115.39 93.5387 115.39Z" fill="#434343"/>
<path d="M240.071 155.597C240.071 167.846 230.112 177.787 217.842 177.787C207.083 177.787 198.103 170.154 196.058 160.035C195.791 158.615 195.613 157.106 195.613 155.597C195.613 150.361 197.392 145.568 200.504 141.751C204.594 136.692 210.818 133.408 217.842 133.408C223.355 133.408 228.423 135.449 232.335 138.733C235.625 141.485 238.026 145.213 239.271 149.473C239.804 151.426 240.16 153.467 240.16 155.597H240.071Z" fill="#3B4051"/>
<path d="M228.957 155.597C228.957 161.722 223.978 166.692 217.843 166.692C211.708 166.692 206.729 161.722 206.729 155.597C206.729 149.473 211.708 144.503 217.843 144.503C223.978 144.503 228.957 149.473 228.957 155.597Z" fill="#067BC2"/>
<path d="M237.404 151.337C237.226 150.45 237.048 149.651 236.782 148.763C236.248 147.077 235.537 145.479 234.559 143.97C234.025 143.172 233.403 142.373 232.603 141.751C232.425 141.574 232.158 141.84 232.336 142.018C232.869 142.728 233.314 143.438 233.759 144.148C234.203 144.858 234.648 145.568 235.003 146.367C235.715 147.876 236.159 149.473 236.426 151.16C236.515 151.604 236.515 152.047 236.604 152.58C236.604 153.024 236.693 153.556 236.871 154C236.96 154.266 237.315 154.266 237.404 154C237.76 153.201 237.493 152.136 237.404 151.337Z" fill="#565E73"/>
<path d="M237.492 155.952C237.492 155.597 236.959 155.597 236.959 155.952C236.87 156.662 236.781 157.372 236.692 157.994C236.603 158.349 236.514 158.704 236.514 158.97C236.425 159.325 236.337 159.68 236.425 160.035C236.425 160.213 236.692 160.213 236.781 160.124C237.048 159.858 237.136 159.503 237.225 159.148C237.314 158.793 237.403 158.438 237.492 158.082C237.581 157.372 237.67 156.662 237.581 155.864L237.492 155.952Z" fill="#565E73"/>
<path d="M230.646 140.686C230.557 140.243 230.29 139.799 229.934 139.444C229.579 139.089 229.223 138.822 228.867 138.556L228.512 138.645V139C228.867 139.266 229.223 139.621 229.49 139.976C229.757 140.331 230.023 140.686 230.379 140.953C230.468 141.041 230.646 140.953 230.646 140.775V140.686Z" fill="#565E73"/>
<path d="M225.311 151.603C225.311 151.337 225.222 151.071 225.133 150.804C224.955 150.272 224.777 149.828 224.51 149.384C224.244 148.94 223.888 148.585 223.532 148.23C223.177 147.875 222.732 147.609 222.288 147.343C222.11 147.254 221.843 147.254 221.665 147.431C221.576 147.609 221.487 147.875 221.665 148.053C222.021 148.319 222.288 148.674 222.643 149.029C222.91 149.384 223.177 149.65 223.355 150.094C223.621 150.538 223.71 150.804 223.888 151.248C223.977 151.426 224.066 151.692 224.066 151.869C224.155 152.136 224.244 152.491 224.51 152.668C224.688 152.757 224.955 152.757 225.133 152.579C225.4 152.313 225.311 152.047 225.311 151.692V151.603Z" fill="#067BC2"/>
<path d="M225.756 155.153C225.756 154.976 225.578 154.709 225.312 154.709C225.045 154.709 224.956 154.887 224.867 155.153C224.867 155.42 224.867 155.686 224.867 155.952C224.867 156.13 224.867 156.218 224.867 156.396C224.867 156.485 224.867 156.662 224.956 156.751L225.134 156.928C225.223 157.017 225.4 157.017 225.578 156.928L225.756 156.751C225.845 156.662 225.845 156.485 225.845 156.396C225.845 156.218 225.845 156.13 225.845 155.952C225.845 155.686 225.845 155.42 225.845 155.153H225.756Z" fill="#067BC2"/>
<path d="M121.37 157.994C121.37 170.242 111.411 180.183 99.1409 180.183C88.3822 180.183 79.4017 172.55 77.3567 162.432C77.0899 161.012 76.9121 159.503 76.9121 157.994C76.9121 152.757 78.6904 147.964 81.8024 144.148C85.8926 139.088 92.1166 135.804 99.1409 135.804C104.654 135.804 109.722 137.846 113.634 141.13C116.924 143.881 119.325 147.609 120.57 151.87C121.103 153.822 121.459 155.864 121.459 157.994H121.37Z" fill="#3B4051"/>
<path d="M110.254 157.994C110.254 164.118 105.275 169.089 99.1398 169.089C93.0046 169.089 88.0254 164.118 88.0254 157.994C88.0254 151.87 93.0046 146.899 99.1398 146.899C105.275 146.899 110.254 151.87 110.254 157.994Z" fill="#067BC2"/>
<path d="M118.701 153.734C118.612 152.846 118.345 152.047 118.079 151.16C117.545 149.473 116.834 147.876 115.856 146.367C115.322 145.568 114.7 144.769 113.9 144.148C113.722 143.97 113.455 144.237 113.633 144.414C114.166 145.124 114.611 145.834 115.056 146.544C115.5 147.254 115.945 147.964 116.3 148.763C117.012 150.272 117.456 151.87 117.723 153.556C117.812 154 117.812 154.444 117.901 154.976C117.901 155.42 117.99 155.953 118.168 156.396C118.256 156.663 118.612 156.663 118.701 156.396C119.057 155.598 118.79 154.533 118.701 153.734Z" fill="#565E73"/>
<path d="M118.879 158.349C118.879 157.994 118.345 157.994 118.345 158.349C118.257 159.059 118.168 159.769 118.079 160.391C117.99 160.746 117.901 161.101 117.901 161.367C117.812 161.722 117.723 162.077 117.812 162.432C117.812 162.61 118.079 162.61 118.168 162.521C118.434 162.255 118.523 161.9 118.612 161.545C118.701 161.19 118.79 160.835 118.879 160.479C118.968 159.769 119.056 159.059 118.968 158.261L118.879 158.349Z" fill="#565E73"/>
<path d="M111.945 143.083C111.856 142.639 111.589 142.195 111.233 141.84C110.878 141.485 110.522 141.219 110.166 140.953L109.811 141.041V141.396C110.166 141.663 110.522 142.018 110.789 142.373C111.055 142.728 111.322 143.083 111.678 143.349C111.767 143.438 111.945 143.349 111.945 143.172V143.083Z" fill="#565E73"/>
<path d="M106.697 153.911C106.697 153.645 106.608 153.378 106.52 153.112C106.342 152.58 106.164 152.136 105.897 151.692C105.63 151.248 105.275 150.893 104.919 150.538C104.563 150.183 104.119 149.917 103.674 149.651C103.496 149.562 103.23 149.562 103.052 149.739C102.963 149.917 102.874 150.183 103.052 150.361C103.408 150.627 103.674 150.982 104.03 151.337C104.297 151.692 104.563 151.958 104.741 152.402C105.008 152.846 105.097 153.112 105.275 153.556C105.364 153.733 105.453 154 105.453 154.177C105.542 154.443 105.63 154.799 105.897 154.976C106.075 155.065 106.342 155.065 106.52 154.887C106.786 154.621 106.697 154.355 106.697 154V153.911Z" fill="#067BC2"/>
<path d="M107.053 157.55C107.053 157.373 106.875 157.106 106.608 157.106C106.342 157.106 106.253 157.284 106.164 157.55C106.164 157.817 106.164 158.083 106.164 158.349C106.164 158.527 106.164 158.615 106.164 158.793C106.164 158.882 106.164 159.059 106.253 159.148L106.431 159.325C106.52 159.414 106.697 159.414 106.875 159.325L107.053 159.148C107.142 159.059 107.142 158.882 107.142 158.793C107.142 158.615 107.142 158.527 107.142 158.349C107.142 158.083 107.142 157.817 107.142 157.55H107.053Z" fill="#067BC2"/>
<path d="M195.613 154.976C195.613 154.799 195.613 154.532 195.613 154.355C195.613 153.112 195.702 151.958 195.88 150.805C195.969 150.716 196.058 150.538 196.236 150.449C195.88 151.87 195.702 153.378 195.613 154.976ZM238.826 148.231C237.492 144.503 235.269 141.219 232.335 138.733C230.913 137.491 229.401 136.515 227.712 135.627H228.512L232.335 137.491C235.625 140.242 238.026 143.97 239.271 148.231C239.182 148.231 239.004 148.231 238.915 148.231H238.826Z" fill="#817B6F"/>
<path d="M195.88 150.804C196.502 146.988 198.103 143.438 200.415 140.509C200.592 140.331 201.482 139.976 202.371 139.532C201.659 140.242 200.948 140.952 200.415 141.751C198.37 144.236 196.947 147.254 196.147 150.449C196.058 150.538 195.969 150.716 195.791 150.804H195.88Z" fill="#34456F"/>
<path d="M196.058 158.793C195.791 157.55 195.702 156.308 195.613 154.976C195.613 153.467 195.88 151.958 196.236 150.45C197.036 147.254 198.459 144.237 200.504 141.751C201.126 140.953 201.748 140.242 202.46 139.532C203.705 139 205.038 138.467 205.038 138.467L213.13 136.337L222.466 135.716H227.623C229.312 136.515 230.824 137.58 232.246 138.822C235.181 141.308 237.492 144.592 238.737 148.319C238.115 148.408 237.403 148.408 236.603 148.497C236.07 146.988 235.358 145.479 234.469 144.148C233.936 143.349 233.313 142.55 232.513 141.929C232.424 141.929 232.424 141.84 232.335 141.84C232.157 141.84 232.069 142.018 232.157 142.195C232.691 142.905 233.136 143.615 233.58 144.325C234.025 145.035 234.469 145.745 234.825 146.544C235.181 147.254 235.447 147.964 235.625 148.674C233.047 148.852 229.846 149.029 226.556 149.207C224.511 146.455 221.31 144.68 217.575 144.68C213.396 144.68 209.751 146.988 207.884 150.361C203.971 151.16 198.37 156.396 195.791 158.97L196.058 158.793ZM228.868 138.556L228.512 138.645V139C228.868 139.266 229.223 139.621 229.49 139.976C229.757 140.331 230.023 140.686 230.379 140.953L230.468 141.041C230.557 141.041 230.646 140.953 230.646 140.864C230.557 140.42 230.29 139.976 229.935 139.621C229.579 139.266 229.223 139 228.868 138.734V138.556Z" fill="#282B35"/>
<path d="M208.15 150.183C210.018 146.81 213.663 144.503 217.842 144.503C221.488 144.503 224.778 146.278 226.823 149.029C226.022 149.029 225.222 149.118 224.422 149.118C224.155 148.763 223.888 148.408 223.622 148.142C223.266 147.787 222.821 147.52 222.377 147.254C222.288 147.254 222.199 147.165 222.11 147.165C221.932 147.165 221.843 147.254 221.754 147.343C221.666 147.52 221.577 147.787 221.754 147.964C222.11 148.231 222.377 148.586 222.732 148.941C222.821 149.029 222.91 149.118 222.91 149.207C216.597 149.562 210.64 149.828 208.506 150.094C208.417 150.094 208.239 150.094 208.15 150.183Z" fill="#34456F"/>
<path d="M235.803 148.497C235.537 147.787 235.27 147.077 235.003 146.367C234.647 145.568 234.203 144.858 233.758 144.148C233.314 143.438 232.869 142.728 232.336 142.018C232.247 141.84 232.336 141.663 232.513 141.663C232.602 141.663 232.602 141.663 232.691 141.751C233.403 142.461 234.025 143.171 234.647 143.97C235.537 145.302 236.248 146.811 236.781 148.319C236.515 148.319 236.248 148.319 235.981 148.408L235.803 148.497Z" fill="#343944"/>
<path d="M230.468 140.952C230.468 140.952 230.379 140.952 230.379 140.864C230.023 140.597 229.757 140.242 229.49 139.887C229.223 139.532 228.867 139.266 228.512 138.911V138.556L228.867 138.467C229.223 138.734 229.668 139 229.934 139.355C230.29 139.71 230.557 140.154 230.646 140.597C230.646 140.686 230.557 140.775 230.468 140.775V140.952Z" fill="#343944"/>
<path d="M222.91 149.207C222.821 149.118 222.733 149.029 222.733 148.941C222.466 148.586 222.11 148.231 221.754 147.964C221.577 147.787 221.577 147.521 221.754 147.343C221.843 147.254 222.021 147.166 222.11 147.166C222.199 147.166 222.288 147.166 222.377 147.254C222.821 147.521 223.266 147.787 223.622 148.142C223.888 148.408 224.244 148.763 224.422 149.118C223.888 149.118 223.444 149.207 222.91 149.207Z" fill="#34507B"/>
<path d="M194.813 69.2363C195.08 69.3251 201.659 79.621 194.102 83.6151L194.813 69.2363Z" fill="#FDBA33"/>
<path d="M183.521 70.3901V70.2126C183.521 69.68 183.521 69.0587 183.61 68.5262C183.699 67.3723 183.699 66.3072 183.788 65.1534C183.966 63.112 184.233 61.0705 184.588 59.0291C185.566 59.2066 186.455 58.4966 187.167 57.964C187.967 57.4315 188.678 56.8989 189.212 56.1001C189.834 55.1238 189.745 54.0587 189.656 52.9936C189.479 51.9285 189.301 50.8634 188.678 49.9758C188.056 49.0882 187.078 48.3782 185.922 48.3782C185.744 48.3782 185.566 48.5557 185.477 48.7332C184.944 51.6622 184.499 54.5912 184.055 57.609V57.8753V58.0528C183.877 59.2066 183.699 60.2717 183.521 61.4256C183.166 63.6445 182.988 65.8635 182.899 68.0824C182.899 68.7037 182.899 69.4138 182.81 70.0351C182.81 70.3013 182.81 70.5676 182.81 70.8339C182.188 71.1889 181.565 71.544 181.032 72.0765C181.032 71.8102 181.032 71.6327 181.032 71.3664C180.943 70.3013 180.854 69.1475 180.676 68.0824C180.498 66.4848 180.231 64.8871 179.698 63.3782C180.409 62.2244 180.676 60.8043 180.498 59.3841C180.409 58.4078 180.142 57.4315 179.698 56.5439C179.52 56.1001 179.253 55.6563 178.987 55.1238C178.72 54.68 178.542 54.1474 178.097 53.7924L178.009 53.7036C177.92 53.6149 177.742 53.5261 177.564 53.5261L177.297 53.4374V53.3486C177.297 53.0823 176.942 52.9936 176.853 53.2599C176.764 53.2599 176.586 53.3486 176.497 53.4374C176.141 54.4137 176.052 55.39 175.963 56.3664C175.786 57.3427 175.697 58.319 175.519 59.3841C175.43 60.3605 175.252 61.3368 175.163 62.4019C175.074 62.9344 175.074 63.467 174.985 63.9108C174.985 64.3546 174.896 64.8871 174.896 65.3309C174.896 65.6859 175.074 65.9522 175.341 66.041C175.43 66.1297 175.608 66.2185 175.786 66.2185L176.052 66.1297C176.408 66.041 176.853 65.9522 177.119 65.6859C177.475 65.4197 177.831 65.1534 178.186 64.8871C178.542 64.6208 178.809 64.3546 179.075 63.9995C179.164 64.1771 179.253 64.4433 179.253 64.6208C179.787 66.6623 179.965 68.7925 180.142 70.8339C180.231 71.3664 180.231 71.9877 180.231 72.5203C179.52 73.3191 178.898 74.3842 178.542 75.7156C176.497 83.615 191.257 84.5913 191.257 84.5913L191.613 69.325C191.613 69.325 187.078 68.7037 183.255 70.3901H183.521Z" fill="#00ABE3"/>
<path d="M190.812 67.4612V85.9228C190.812 85.9228 193.747 86.1891 193.836 85.9228C193.925 85.6565 195.169 67.4612 195.169 67.4612H190.812Z" fill="#5CBFEB"/>
<path d="M190.812 70.2124H194.992L194.903 71.8988H190.812V70.2124Z" fill="#58A1D8"/>
<path d="M187.522 70.5674C187.522 70.4787 187.344 70.3899 187.256 70.3899C186.9 70.3899 186.544 70.4787 186.277 70.5674C186.011 70.6562 185.655 70.6562 185.388 70.7449C185.122 70.8337 184.766 70.9224 184.499 71.0112C184.232 71.1 183.877 71.2775 183.699 71.5437C183.61 71.6325 183.699 71.81 183.877 71.81C184.144 71.81 184.499 71.6325 184.766 71.5437C185.033 71.455 185.299 71.3662 185.655 71.2775C185.922 71.1887 186.277 71.1887 186.544 71.1C186.811 71.0112 187.167 71.0112 187.433 70.9224C187.522 70.9224 187.7 70.7449 187.611 70.6562V70.5674H187.522Z" fill="#668CC7"/>
<path d="M189.123 70.3902L189.034 70.3013H188.856H188.679C188.59 70.3013 188.412 70.3013 188.323 70.3902L188.234 70.4791V70.568V70.6569L188.323 70.7459C188.412 70.7459 188.59 70.8348 188.679 70.8348H188.856H189.034L189.123 70.7459V70.568V70.3902Z" fill="#668CC7"/>
<path d="M195.969 72.5203L195.88 72.3428V72.4316L195.791 72.2541L195.702 72.1653L195.613 72.0765V72.1653V72.0765L195.524 71.9878H195.347L195.258 72.1653V72.4316L195.347 72.6091V72.7866V72.8754L195.524 73.0529H195.702L195.88 72.9641C195.969 72.8754 195.969 72.6978 195.969 72.5203Z" fill="#FFD883"/>
<path d="M197.213 76.7807C197.213 76.2482 197.124 75.6269 197.035 75.0943C196.946 74.8281 196.857 74.5618 196.769 74.2955C196.68 74.0292 196.591 73.763 196.413 73.5854L196.146 73.6742C196.146 73.9405 196.235 74.2068 196.235 74.3843C196.324 74.6505 196.413 74.9168 196.413 75.1831C196.502 75.7156 196.591 76.2482 196.591 76.692C196.591 77.2245 196.591 77.7571 196.502 78.2896C196.502 78.5559 196.413 78.8222 196.324 78.9997C196.235 79.266 196.146 79.5322 196.235 79.7985L196.502 79.8873C196.68 79.7098 196.769 79.4435 196.857 79.266C196.946 78.9997 197.035 78.7334 197.035 78.4671C197.124 77.9346 197.213 77.3133 197.124 76.7807H197.213Z" fill="#FFD883"/>
<path d="M155.156 90.7156C155.156 90.7156 154.623 96.5736 153.556 102.254C153.022 105.094 152.311 107.935 151.6 109.799C149.199 115.39 97.0058 110.686 93.9827 109.799C91.7598 109.088 91.9376 103.23 92.56 98.26C92.7378 96.5736 93.0046 95.0647 93.1824 93.8221C94.0716 88.9404 98.873 91.5144 98.873 91.6032L155.067 90.8043L155.156 90.7156Z" fill="#06D6A0"/>
<path d="M153.556 102.254C153.022 105.094 152.311 107.934 151.6 109.798C149.199 115.39 97.0058 110.686 93.9827 109.798C91.7598 109.088 91.9376 103.23 92.56 98.2598C95.5831 100.923 95.3164 107.402 97.8949 108.112C100.473 108.822 147.332 110.242 150.444 106.337C151.778 104.562 152.845 103.319 153.556 102.431V102.254Z" fill="#52AA8A"/>
<path d="M165.828 138.644H161.916C158.359 98.1709 165.828 90.9816 165.828 90.9816H165.65C163.605 91.1591 142.977 93.378 119.237 95.597C107.411 96.6621 104.299 91.1591 104.299 84.946C104.299 78.1117 108.122 70.4785 108.122 70.4785L175.342 79.7093C193.659 84.5022 165.739 138.644 165.739 138.644H165.828Z" fill="#4F4F4F"/>
<path d="M161.204 134.118C161.027 134.473 161.649 138.911 161.649 138.911C161.649 138.911 159.515 144.237 160.849 144.68C162.271 145.124 176.676 144.858 176.409 143.882C176.142 142.905 167.339 138.29 167.339 138.29L168.495 134.384L161.204 134.118Z" fill="#52AA8A"/>
<path d="M186.812 84.5025C186.812 84.5025 183.522 88.2303 182.811 86.6327C182.099 85.035 180.232 81.396 180.232 81.396L175.342 80.4196L173.475 80.0646V75.8042H180.677C180.677 75.8042 184.945 76.5143 186.189 78.6445C187.434 80.7746 186.812 84.5025 186.812 84.5025Z" fill="#F8B1AF"/>
<path d="M182.809 86.6328C182.098 85.0351 180.231 81.3961 180.231 81.3961L175.34 80.4197C174.629 80.2422 174.007 80.0647 173.473 79.9759C172.94 79.7984 172.584 79.7984 172.584 79.7984L173.029 78.2896L173.473 78.3783L180.764 79.7984C180.764 79.7984 182.987 85.7452 182.72 86.7215L182.809 86.6328Z" fill="#F69C9D"/>
<path d="M160.582 142.106H156.67C153.113 101.633 160.582 94.4435 160.582 94.4435H160.404C158.359 94.621 137.731 96.84 113.99 99.0589C102.165 100.124 99.0527 94.621 99.0527 88.408C99.0527 81.5736 102.876 73.9404 102.876 73.9404L170.096 83.1712C188.413 87.9642 160.493 142.106 160.493 142.106H160.582Z" fill="#434343"/>
<path d="M170.183 29.384C169.739 40.4787 142.531 77.8457 141.908 78.5558C141.375 79.0883 120.213 78.0232 109.01 77.4907C105.008 77.3132 102.252 77.1357 102.252 77.1357C102.252 77.1357 106.342 55.6563 127.86 33.2893C149.377 10.9223 165.649 22.2833 165.649 22.2833L166.982 24.4135L170.183 29.4727V29.384Z" fill="#5CBFEB"/>
<path d="M170.183 29.384C169.739 40.4787 142.531 77.8457 141.908 78.5558C141.375 79.0883 120.213 78.0232 109.01 77.4907C109.543 76.0706 115.145 74.4729 124.57 72.8753C138.352 70.6564 161.736 27.1651 166.271 24.7686C166.538 24.5911 166.805 24.5023 167.071 24.4136L170.272 29.4728L170.183 29.384Z" fill="#067BC2"/>
<path d="M171.341 18.644L163.961 23.2595C163.961 23.2595 167.873 31.2477 168.051 30.7151C168.229 30.1826 182.722 26.1885 182.722 26.1885L171.252 18.644H171.341Z" fill="#F8B1AF"/>
<path d="M174.096 13.4074C174.185 13.9399 172.228 21.2181 174.096 22.9045C175.963 24.6796 188.411 30.0939 188.856 26.2773C189.3 22.4607 190.189 11.366 188.233 8.96951C186.188 6.57305 183.432 6.21802 183.432 6.21802C183.432 6.21802 173.384 9.23578 174.096 13.3186V13.4074Z" fill="#F8B1AF"/>
<path d="M190.101 11.2772C189.656 10.3897 189.034 9.5021 188.767 8.52576C188.678 8.25949 188.322 8.34825 188.322 8.61452C188.322 9.14707 188.5 9.59085 188.678 10.0346C188.856 10.4784 189.123 10.8335 189.389 11.2772C189.656 11.721 189.834 12.2536 189.923 12.7861C189.567 11.8098 189.034 10.9222 188.322 10.1234C188.144 9.85713 187.789 10.1234 187.789 10.3897C187.611 10.2122 187.433 10.1234 187.255 10.0346L187.166 9.85713C187.078 9.67961 186.989 9.59085 186.9 9.5021L186.722 9.32458L186.455 9.23582C186.277 9.23582 186.188 9.32458 186.188 9.5021L186.277 9.67961C186.188 9.76837 186.099 9.94588 186.277 10.0346C186.455 10.1234 186.544 10.2122 186.722 10.3009C186.811 10.5672 186.989 10.7447 186.989 11.011V11.0997C186.722 10.6559 186.366 10.2122 186.011 9.94588H185.833C185.566 10.0346 185.299 10.2122 185.032 10.3897C184.766 10.5672 184.499 10.7447 184.143 10.9222C183.521 11.2772 182.987 11.4548 182.365 11.6323C181.743 11.8098 181.12 11.8985 180.409 11.8985H180.231C181.12 11.5435 182.009 11.1885 182.81 10.6559C183.165 10.4784 183.432 10.3009 183.788 10.1234C184.054 9.94588 184.499 9.76837 184.677 9.41334C184.766 9.23582 184.588 9.05831 184.41 9.14707C184.232 9.14707 184.054 9.32458 183.877 9.41334C183.699 9.5021 183.521 9.59085 183.343 9.76837C182.987 9.94588 182.632 10.2122 182.276 10.3897C181.565 10.8335 180.853 11.1885 180.053 11.4548C179.609 11.6323 179.075 11.8098 178.542 11.8985H178.364L178.275 11.9873C178.097 11.9873 177.919 12.0761 177.741 12.0761C177.386 12.0761 176.941 12.0761 176.585 12.0761C176.408 12.0761 176.141 12.0761 175.963 11.9873C175.785 11.9873 175.607 11.8985 175.341 11.8985C175.163 11.8985 175.163 12.0761 175.252 12.1648C175.519 12.3423 175.874 12.4311 176.141 12.4311C176.497 12.5199 176.763 12.5199 177.119 12.5199C177.652 12.5199 178.186 12.4311 178.631 12.3423C178.897 12.4311 179.075 12.4311 179.342 12.4311C179.698 12.4311 180.053 12.5199 180.32 12.4311C181.031 12.4311 181.743 12.3423 182.454 12.1648C183.165 11.9873 183.788 11.721 184.41 11.366C184.677 11.1885 185.032 11.011 185.299 10.8335C185.477 10.6559 185.744 10.4784 185.922 10.3009C186.188 10.5672 186.366 10.9222 186.544 11.2772C186.722 11.721 186.9 12.1648 186.9 12.6086C186.9 12.9636 187.344 12.9636 187.433 12.6974C187.611 12.1648 187.7 11.6323 187.611 11.011C188.144 11.6323 188.589 12.4311 188.767 13.3187C188.856 13.6737 189.3 13.5849 189.3 13.2299C189.3 13.1412 189.3 12.9636 189.3 12.8749C189.478 13.3187 189.656 13.7625 189.745 14.2062C189.834 14.4725 190.19 14.4725 190.278 14.295C190.812 13.4074 190.545 12.3423 190.101 11.366V11.2772Z" fill="#F68B3E"/>
<path d="M186.099 15.7153L186.01 15.5377L185.743 15.449L185.565 15.6265V15.7153V15.804L185.477 15.8928V16.0703L185.565 16.2478L185.743 16.3366H185.832H185.921H186.01L186.099 16.1591L186.188 16.0703V15.9815L186.099 15.7153Z" fill="#6A6E6F"/>
<path d="M189.389 25.7449C188.944 26.81 188.322 27.6976 187.344 28.1413C183.609 30.0053 177.385 24.7685 177.029 24.4135C177.029 24.4135 177.029 24.3248 177.118 24.1472C177.207 23.881 177.296 23.4372 177.385 22.9046C177.741 21.4845 178.274 19.4431 178.274 19.4431C178.274 19.4431 187.077 19.0881 187.521 18.378C187.966 17.6679 189.655 17.0466 189.655 17.0466C190.1 17.3129 190.722 22.4608 189.389 25.8336V25.7449Z" fill="#B2E1E9"/>
<path d="M189.389 25.7448C188.944 26.8099 188.322 27.6975 187.343 28.1413C183.609 30.0052 177.385 24.7685 177.029 24.4134V24.0584L177.207 22.7271L177.385 22.9046C178.452 23.8809 184.943 29.3839 188.944 26.0998C189.122 25.9223 189.3 25.8336 189.389 25.7448Z" fill="#8ED4DA"/>
<path d="M178.72 15.4489V15.7152C178.72 16.0702 178.72 16.4252 178.72 16.869C178.72 20.5969 178.72 24.7685 178.72 24.7685C178.72 24.7685 168.672 25.9223 165.294 19.8868C164.849 19.1767 164.582 18.3779 164.404 17.4016C164.316 17.1353 164.316 16.869 164.316 16.6028C164.316 16.2477 164.227 15.8927 164.227 15.5377C164.227 15.5377 164.138 14.9164 164.049 14.0288C163.782 10.0347 164.671 -0.261204 179.876 0.00506887C179.876 0.00506887 189.479 1.78022 190.101 10.8335L178.809 11.4548C178.809 11.5436 178.809 12.6087 178.809 13.94C178.809 14.3838 178.809 14.9164 178.809 15.3602L178.72 15.4489Z" fill="#52AA8A"/>
<path d="M178.721 13.9402C178.721 14.384 178.721 14.9165 178.721 15.3603C175.698 16.1591 167.429 16.4254 164.228 16.5141C164.228 16.1591 164.139 15.8041 164.139 15.4491C164.139 15.4491 164.05 14.8278 163.961 13.9402C167.873 15.2715 176.409 14.2065 178.721 13.9402Z" fill="#067BC2"/>
<path d="M173.385 13.5848C173.208 13.4073 172.852 13.4961 172.674 13.4961C172.407 13.4961 172.141 13.4961 171.874 13.5848C171.34 13.5848 170.807 13.6736 170.273 13.6736C169.206 13.6736 168.139 13.6736 166.984 13.7624C166.895 13.7624 166.806 13.9399 166.984 14.0286C168.051 14.2062 169.206 14.2062 170.273 14.2062C170.807 14.2062 171.34 14.2062 171.874 14.1174C172.141 14.1174 172.407 14.1174 172.763 14.0286C172.941 14.0286 173.297 14.0286 173.474 13.8511V13.6736L173.385 13.5848Z" fill="#067BC2"/>
<path d="M175.607 13.4078C175.518 13.3189 175.43 13.3189 175.252 13.3189H174.896C174.719 13.3189 174.452 13.4078 174.274 13.4078C174.097 13.4967 174.097 13.7635 174.363 13.7635C174.541 13.7635 174.807 13.7635 174.985 13.6746L175.252 13.5857L175.518 13.4078V13.23L175.607 13.4078Z" fill="#067BC2"/>
<path d="M178.097 15.8927C176.496 15.9815 174.896 16.2477 173.206 16.4253C172.406 16.514 171.606 16.6028 170.806 16.6028C170.45 16.6028 170.005 16.6915 169.65 16.6915C169.294 16.6915 168.761 16.6915 168.405 16.7803C168.227 16.8691 168.227 17.0466 168.405 17.1353C168.761 17.2241 169.294 17.2241 169.65 17.1353C170.005 17.1353 170.45 17.1353 170.806 17.0466C171.606 16.9578 172.406 16.9578 173.295 16.8691C174.896 16.6915 176.585 16.514 178.186 16.159C178.363 16.159 178.363 15.804 178.186 15.804L178.097 15.8927Z" fill="#067BC2"/>
<path d="M167.782 16.8695C167.427 16.7806 167.071 16.6917 166.715 16.6917C166.36 16.6917 166.004 16.6917 165.648 16.7806V16.9584C166.004 17.0473 166.36 17.0473 166.627 17.0473C166.982 17.0473 167.249 17.1362 167.605 17.2252C167.782 17.3141 167.871 16.9584 167.694 16.8695H167.782Z" fill="#067BC2"/>
<path d="M168.139 5.4194L168.05 5.15313L167.961 4.97562C167.872 4.88686 167.694 4.79811 167.517 4.88686L167.339 4.97562L167.161 5.24189L167.072 5.50816C167.072 5.59691 167.072 5.77443 167.072 5.86318L167.161 6.0407L167.339 6.12945C167.517 6.12945 167.605 6.12945 167.783 6.0407L168.05 5.77443L168.139 5.59691V5.33064V5.4194Z" fill="#067BC2"/>
<path d="M174.718 0.80409C173.473 0.715332 172.14 1.15912 171.073 1.86918C170.539 2.22422 170.006 2.57925 169.561 3.02304C169.205 3.28931 168.761 3.64434 168.494 3.99937L168.227 4.26565C167.961 4.53192 168.316 4.88695 168.583 4.70944L168.672 4.62068L168.761 4.53192C168.939 4.3544 169.116 4.26565 169.294 4.08813C169.561 3.91061 169.828 3.7331 170.006 3.55558C170.539 3.20055 170.984 2.93428 171.517 2.668C172.584 2.13546 173.651 1.60291 174.807 1.24788C175.074 1.15912 175.074 0.715332 174.718 0.715332V0.80409Z" fill="#067BC2"/>
<path d="M167.517 34.2657C167.517 34.2657 161.915 24.5024 155.78 30.6267C149.645 36.7509 110.078 81.7511 126.794 82.905C143.51 84.0588 174.275 80.5973 174.275 80.5973L173.474 75.1831L143.154 71.189C143.154 71.189 167.428 41.3663 167.606 34.2657H167.517Z" fill="#5CBFEB"/>
<path d="M164.671 21.6621C164.671 21.6621 162.714 22.0171 162.892 22.7272C163.07 23.4373 166.36 31.6917 168.138 31.6917C169.828 31.6917 170.272 29.384 170.272 29.384L164.76 21.6621H164.671Z" fill="#5CBFEB"/>
<path d="M155.958 137.58C155.78 137.935 156.403 142.373 156.403 142.373C156.403 142.373 154.269 147.698 155.603 148.142C157.025 148.586 171.43 148.319 171.163 147.343C170.896 146.367 162.093 141.751 162.093 141.751L163.249 137.846L155.958 137.58Z" fill="#52AA8A"/>
<path d="M161.916 92.8455C161.649 93.2006 161.116 93.7331 160.404 94.4432C158.359 94.6207 137.731 96.8396 113.99 99.0586C102.165 100.124 99.0527 94.6207 99.0527 88.4077C99.6751 88.2302 100.475 88.6739 101.453 90.0941C104.477 94.7095 163.161 91.2479 161.827 92.8455H161.916Z" fill="#434343"/>
<path d="M190.635 160.302C190.635 160.302 199.437 153.112 206.462 146.811C206.462 146.811 244.962 147.609 245.584 145.834C246.207 144.059 242.205 123.911 216.509 123.822C216.509 123.822 185.833 128.083 190.724 160.302H190.635Z" fill="#5CBFEB"/>
<path d="M182.098 82.5498C182.098 83.9699 180.943 85.1238 179.52 85.1238C178.097 85.1238 176.941 83.9699 176.941 82.5498C176.941 81.1297 178.097 79.9758 179.52 79.9758C180.943 79.9758 182.098 81.1297 182.098 82.5498Z" fill="#383F6C"/>
<path d="M121.279 156.041C121.19 154.621 120.924 153.201 120.479 151.781C120.391 151.337 120.213 150.893 120.035 150.449H120.924C121.19 150.538 121.279 150.627 121.368 150.716C121.99 152.313 121.368 155.331 121.368 155.952C121.368 155.952 121.368 155.952 121.279 156.041Z" fill="#817B6F"/>
<path d="M120.925 150.539H120.036C120.036 150.45 120.036 150.45 119.947 150.361C120.303 150.45 120.658 150.45 120.836 150.539H120.925Z" fill="#34456F"/>
<path d="M77.001 156.041C76.9121 156.041 76.9121 156.041 76.9121 156.041L77.6231 149.739H78.5117C77.7119 151.692 77.1787 153.822 77.001 156.041Z" fill="#817B6F"/>
<path d="M78.5117 149.739H77.623C77.623 149.739 77.9785 149.739 78.5117 149.739C78.5117 149.739 78.5117 149.739 78.5117 149.828V149.739Z" fill="#34456F"/>
<path d="M110.165 156.307C109.81 153.733 108.476 151.337 106.609 149.65C110.61 149.739 114.255 149.828 116.923 150.005C117.368 151.159 117.634 152.313 117.812 153.556C117.901 154 117.901 154.443 117.99 154.976C117.99 155.42 118.079 155.863 118.168 156.307C116.123 156.396 113.366 156.396 110.165 156.396V156.307ZM118.79 156.218C119.057 155.42 118.879 154.532 118.701 153.733C118.612 152.846 118.346 152.047 118.079 151.159C117.99 150.804 117.812 150.449 117.723 150.094C118.612 150.183 119.413 150.272 120.035 150.36C120.035 150.449 120.035 150.449 120.124 150.538C120.302 150.982 120.391 151.426 120.568 151.869C120.924 153.201 121.191 154.621 121.369 156.13C121.102 156.218 120.213 156.218 118.879 156.307L118.79 156.218ZM88.2033 156.13C82.246 156.041 77.7113 155.952 77 155.952C77.1778 153.733 77.7113 151.603 78.5116 149.65C78.5116 149.65 78.5116 149.65 78.5116 149.562C80.5566 149.562 85.7137 149.473 91.8488 149.473C89.9816 151.159 88.6479 153.467 88.2033 156.041V156.13Z" fill="#282B35"/>
<path d="M109.811 156.308C103.142 156.308 94.7839 156.219 88.1152 156.13C88.5598 153.556 89.8935 151.248 91.7608 149.562C92.1164 149.562 92.3832 149.562 92.7388 149.562C96.0287 149.562 99.5853 149.562 103.053 149.651C102.964 149.651 102.964 149.74 102.875 149.74C102.786 149.917 102.697 150.183 102.875 150.361C103.231 150.627 103.498 150.982 103.853 151.337C104.12 151.692 104.387 151.958 104.565 152.402C104.831 152.846 104.92 153.112 105.098 153.556C105.187 153.734 105.276 154 105.276 154.177C105.365 154.444 105.454 154.799 105.72 154.976C105.809 154.976 105.898 155.065 105.987 155.065C106.076 155.065 106.254 154.976 106.343 154.887C106.61 154.621 106.521 154.355 106.521 154C106.521 153.734 106.432 153.467 106.343 153.201C106.165 152.669 105.987 152.225 105.72 151.781C105.454 151.337 105.098 150.982 104.742 150.627C104.387 150.272 103.942 150.006 103.498 149.74C104.476 149.74 105.454 149.74 106.432 149.74C108.299 151.426 109.633 153.734 109.988 156.396C109.899 156.396 109.811 156.396 109.722 156.396L109.811 156.308Z" fill="#34456F"/>
<path d="M118.169 156.307C117.991 155.864 117.991 155.42 117.991 154.976C117.991 154.532 117.902 154 117.813 153.556C117.635 152.313 117.279 151.159 116.924 150.006C117.191 150.006 117.457 150.006 117.724 150.094C117.902 150.449 117.991 150.804 118.08 151.159C118.346 151.958 118.524 152.846 118.702 153.733C118.791 154.532 119.058 155.42 118.791 156.219C118.613 156.219 118.435 156.219 118.169 156.219V156.307Z" fill="#343944"/>
<path d="M106.165 154.976C106.076 154.976 105.987 154.976 105.899 154.887C105.632 154.71 105.543 154.444 105.454 154.089C105.365 153.911 105.276 153.645 105.276 153.467C105.098 153.024 105.009 152.757 104.743 152.313C104.476 151.958 104.298 151.603 104.031 151.248C103.765 150.893 103.409 150.538 103.053 150.272C102.875 150.095 102.875 149.828 103.053 149.651C103.053 149.562 103.142 149.562 103.231 149.562C103.409 149.562 103.498 149.562 103.676 149.562C104.12 149.828 104.565 150.095 104.921 150.45C105.276 150.805 105.632 151.248 105.899 151.603C106.165 152.047 106.432 152.491 106.521 153.024C106.61 153.29 106.699 153.556 106.699 153.822C106.699 154.089 106.788 154.444 106.521 154.71C106.432 154.799 106.343 154.887 106.165 154.887V154.976Z" fill="#34507B"/>
<path d="M127.682 152.58C127.682 152.58 126.97 129.858 107.32 129.503C87.6697 129.148 69.1753 139.71 68.1973 154.799H127.682V152.58Z" fill="#5CBFEB"/>
<path d="M99.3194 113.349H46.6816C44.7255 113.349 43.125 111.751 43.125 109.798C43.125 107.846 44.7255 106.248 46.6816 106.248H99.3194C101.276 106.248 102.876 107.846 102.876 109.798C102.876 111.751 101.276 113.349 99.3194 113.349Z" fill="#434343"/>
<path d="M79.9355 112.461C80.3801 113.349 85.2704 120.183 85.2704 120.183L86.8709 118.852L81.9806 112.017L79.9355 112.461Z" fill="#434343"/>
<path d="M87.8484 118.23C87.8484 118.23 85.3587 118.674 84.7363 120.804L87.8484 118.23Z" fill="#3667AF"/>
<path d="M48.5488 106.16H99.1416V51.4849H48.5488V106.16Z" fill="#06D6A0"/>
<path d="M46.7695 106.159H99.8519V102.343H46.7695V106.159Z" fill="#52AA8A"/>
<path d="M45.9688 53.2596H99.8514V50.3306H45.9688V53.2596Z" fill="#52AA8A"/>
<path d="M48.5488 55.1237V53.2598H99.1416L48.5488 55.1237Z" fill="#52AA8A"/>
<path d="M191.879 87.9641C191.879 87.9641 209.84 119.296 209.217 121.337C208.595 123.378 210.462 123.112 210.818 122.757C211.174 122.402 210.818 118.763 210.818 118.763L192.946 87.9641H191.879Z" fill="#B7D3F2"/>
<path d="M145.732 151.603C145.732 151.603 146.266 150.804 147.777 151.603C149.289 152.402 169.917 155.597 180.765 149.562C180.765 149.562 184.233 146.988 185.122 147.964C186.011 148.941 181.387 152.225 177.92 153.645C174.452 155.065 147.689 157.905 145.732 151.603Z" fill="#B7D3F2"/>
<path d="M132.039 59.6501C131.328 60.3601 130.705 61.3364 130.172 62.224C129.549 63.1116 129.016 63.9992 128.394 64.9755C127.238 66.8394 126.171 68.7033 125.193 70.5672C124.659 71.6323 124.126 72.6974 123.592 73.7625C123.503 73.94 123.77 74.0288 123.859 73.8513C124.392 72.8749 124.837 71.9873 125.37 71.011C125.904 70.1234 126.348 69.1471 126.882 68.2595C127.949 66.3956 129.016 64.6205 130.261 62.8453C130.616 62.3128 130.883 61.869 131.239 61.3364C131.594 60.8039 131.95 60.3601 132.217 59.7388C132.306 59.6501 132.128 59.4725 132.039 59.5613V59.6501Z" fill="#067BC2"/>
<path d="M47.4805 73.9404H49.6144V65.4197H47.4805V73.9404Z" fill="#81B2BB"/>
<path d="M45.6133 72.5201H47.8362V66.8396H45.6133V72.5201Z" fill="#7BABB1"/>
<path d="M49.6152 69.2364H98.7853V69.0586H49.6152V69.2364Z" fill="#EF4538"/>
<path d="M216.687 126.307C215.709 126.218 235.804 123.201 241.672 139.443C241.672 139.443 240.783 142.106 240.072 140.863C239.271 139.621 234.292 127.55 216.776 126.307H216.687Z" fill="#B7D3F2"/>
<path d="M76.9113 142.106C76.2889 142.461 88.5592 130.302 104.742 131.012C121.013 131.633 124.036 144.414 123.592 144.858C123.147 145.302 120.48 145.479 118.79 140.864C117.101 136.248 103.052 126.307 76.9113 142.106Z" fill="#B7D3F2"/>
<path d="M129.549 147.876C129.46 147.876 129.283 147.787 129.283 147.609C129.194 147.254 129.016 146.899 128.927 146.544C128.838 146.189 128.749 145.834 128.66 145.479C128.482 144.769 128.304 144.059 128.127 143.349C127.415 140.864 126.348 138.556 125.015 136.337C124.392 135.183 123.681 134.118 122.881 133.142C122.525 132.609 122.08 132.165 121.725 131.633C121.28 131.1 120.924 130.657 120.48 130.124C120.302 129.946 120.48 129.68 120.658 129.68C120.747 129.68 120.747 129.68 120.836 129.769C121.369 130.301 121.991 130.745 122.436 131.278C122.97 131.81 123.414 132.432 123.859 132.964C125.459 135.006 126.793 137.313 127.86 139.799C128.393 141.041 128.838 142.284 129.194 143.526C129.371 144.148 129.549 144.769 129.638 145.39C129.727 145.745 129.727 146.012 129.816 146.367C129.905 146.722 129.816 147.077 129.905 147.432C129.905 147.609 129.727 147.698 129.549 147.698V147.876Z" fill="#B7D3F2"/>
<path d="M128.571 138.201C128.393 137.58 128.126 137.047 127.86 136.426C127.326 135.272 126.704 134.207 125.992 133.142C125.548 132.609 125.103 131.988 124.57 131.544C124.392 131.456 124.214 131.633 124.303 131.811C124.659 132.521 125.192 133.142 125.548 133.763C125.992 134.385 126.348 135.095 126.704 135.805C127.059 136.515 127.326 137.225 127.682 137.935C127.948 138.645 128.126 139.444 128.66 140.065C128.749 140.154 129.015 140.154 129.015 139.976C129.104 139.355 128.927 138.734 128.66 138.201H128.571Z" fill="#B7D3F2"/>
<path d="M128.571 135.538C128.393 135.183 128.215 134.828 128.126 134.562C127.948 134.207 127.77 133.94 127.681 133.585C127.504 133.23 127.326 132.964 127.148 132.609C127.059 132.431 126.792 132.52 126.881 132.698C126.97 133.053 127.148 133.408 127.237 133.674C127.415 134.029 127.504 134.384 127.681 134.65C127.859 135.005 127.948 135.272 128.126 135.627C128.304 135.982 128.393 136.337 128.659 136.514C128.748 136.603 129.015 136.514 129.015 136.337C129.015 135.982 128.837 135.627 128.659 135.36L128.571 135.538Z" fill="#B7D3F2"/>
<path d="M103.32 127.55C102.43 127.373 101.541 127.461 100.563 127.461C99.6741 127.461 98.7849 127.55 97.8958 127.639C96.1175 127.816 94.3392 128.171 92.5609 128.526C89.0932 129.414 85.7144 130.745 82.6024 132.521C80.824 133.586 79.2236 134.74 77.6231 136.071C77.4453 136.248 77.712 136.515 77.8898 136.426C80.7351 134.296 83.7583 132.432 87.0481 131.1C90.338 129.769 93.7168 128.793 97.2734 128.349C98.2514 128.26 99.2295 128.171 100.208 128.083C100.741 128.083 101.186 128.083 101.719 128.083C102.253 128.083 102.697 128.083 103.231 127.994C103.497 127.994 103.586 127.55 103.32 127.55Z" fill="#B7D3F2"/>
<path d="M87.9373 129.059C87.6705 128.97 87.4927 129.059 87.3149 129.147C87.0481 129.236 86.7814 129.325 86.6036 129.414C86.159 129.591 85.6255 129.769 85.1809 130.035C84.2029 130.39 83.3137 130.834 82.4245 131.366C82.2467 131.455 82.3356 131.81 82.6024 131.721C83.5804 131.366 84.4696 130.923 85.4477 130.479C85.8922 130.301 86.3368 130.124 86.8703 129.946C87.1371 129.858 87.4038 129.769 87.5816 129.68C87.8484 129.591 88.0262 129.503 88.204 129.325L88.1151 129.059H87.9373Z" fill="#B7D3F2"/>
<path d="M95.2287 127.373C95.0509 127.195 94.7841 127.284 94.5174 127.284C94.2506 127.284 93.9839 127.373 93.806 127.373C93.2725 127.461 92.828 127.55 92.2945 127.639C91.3164 127.816 90.3383 128.083 89.3603 128.438C89.0935 128.527 89.1824 128.882 89.4492 128.793C90.4273 128.527 91.4053 128.349 92.3834 128.171C92.828 128.083 93.3615 127.994 93.806 127.905C94.0728 127.905 94.2506 127.816 94.5174 127.816C94.7841 127.816 95.0509 127.728 95.2287 127.55V127.284V127.373Z" fill="#B7D3F2"/>
<path d="M242.649 153.024C242.472 152.225 242.294 151.337 241.849 150.627C241.671 150.361 241.227 150.538 241.316 150.805C241.405 151.515 241.671 152.225 241.76 152.935C241.849 153.645 241.938 154.355 241.938 155.065C241.938 156.485 241.76 157.905 241.405 159.325C241.138 160.124 240.782 160.834 240.693 161.722C240.693 161.899 240.96 161.988 241.049 161.899C241.582 161.367 241.938 160.568 242.116 159.947C242.383 159.237 242.561 158.527 242.649 157.728C242.916 156.219 242.827 154.621 242.561 153.112L242.649 153.024Z" fill="#3B4051"/>
<path d="M244.517 152.136C244.517 151.781 243.984 151.781 243.984 152.136C243.984 152.846 243.984 153.556 243.984 154.177C243.984 154.532 243.984 154.887 243.895 155.242C243.895 155.597 243.806 155.952 243.895 156.219C243.984 156.396 244.162 156.396 244.25 156.307C244.428 156.041 244.428 155.686 244.517 155.331C244.517 154.976 244.517 154.621 244.517 154.266C244.517 153.556 244.517 152.846 244.428 152.136H244.517Z" fill="#3B4051"/>
<path d="M246.116 153.201C246.116 152.935 245.672 152.935 245.672 153.201C245.672 153.467 245.672 153.733 245.672 154C245.672 154.177 245.672 154.266 245.672 154.355C245.672 154.532 245.672 154.621 245.761 154.799C245.85 154.976 246.027 154.976 246.027 154.799C246.116 154.621 246.116 154.532 246.116 154.355C246.116 154.266 246.116 154.088 246.116 154C246.116 153.733 246.116 153.467 246.116 153.201Z" fill="#3B4051"/>
<path d="M202.016 172.253C201.749 171.898 201.393 171.632 201.038 171.366C200.682 171.099 200.326 170.833 200.06 170.478C199.437 169.857 198.815 169.235 198.281 168.525C197.125 167.016 196.236 165.241 195.703 163.377C195.436 162.312 195.169 161.247 195.08 160.182C195.08 159.827 194.547 159.827 194.547 160.182C194.547 161.247 194.636 162.223 194.903 163.2C195.169 164.176 195.436 165.152 195.881 166.129C196.681 167.904 197.748 169.413 199.17 170.833C199.526 171.188 199.882 171.543 200.326 171.898C200.682 172.253 201.216 172.697 201.749 172.786C202.016 172.874 202.283 172.608 202.105 172.342L202.016 172.253Z" fill="#3B4051"/>
<path d="M196.326 168.113C196.059 167.669 195.792 167.314 195.525 166.87C195.259 166.426 194.992 165.982 194.814 165.539C194.37 164.651 194.103 163.586 194.103 162.61C194.103 162.343 193.658 162.343 193.658 162.61C193.658 163.675 193.925 164.74 194.37 165.805C194.814 166.781 195.348 167.846 196.237 168.379C196.415 168.468 196.503 168.29 196.415 168.201L196.326 168.113Z" fill="#3B4051"/>
<path d="M193.481 167.491C193.036 166.16 192.325 164.828 191.88 163.408C191.791 163.142 191.347 163.231 191.436 163.497C191.791 164.917 192.325 166.337 193.125 167.58C193.214 167.668 193.481 167.668 193.392 167.491H193.481Z" fill="#3B4051"/>
<path d="M76.8228 168.645C76.8228 168.467 76.7339 168.29 76.7339 168.112C76.6449 167.935 76.6449 167.757 76.556 167.58C76.4671 167.225 76.2893 166.87 76.2004 166.515C75.9336 165.804 75.6669 165.094 75.489 164.384C75.0445 162.964 74.7777 161.455 74.7777 159.946C74.7777 159.503 74.7777 159.059 74.8666 158.615C74.8666 158.171 74.8666 157.728 74.9556 157.284C74.9556 157.017 74.511 156.929 74.4221 157.195C74.3332 157.55 74.2442 157.994 74.1553 158.349C74.0664 158.793 74.0664 159.148 74.0664 159.591C74.0664 160.39 74.0664 161.1 74.1553 161.899C74.3332 163.408 74.7777 164.917 75.3112 166.337C75.489 166.781 75.6669 167.136 75.7558 167.58C75.8447 167.757 75.9336 168.023 76.0225 168.201C76.1115 168.378 76.2004 168.556 76.3782 168.822C76.556 169.088 76.8228 168.911 76.8228 168.645Z" fill="#3B4051"/>
<path d="M73.3547 164.651C73.2658 164.207 73.088 163.763 72.9103 163.32C72.8214 162.876 72.6437 162.343 72.6437 161.899C72.5548 160.923 72.5548 159.947 72.7326 158.97C72.8214 158.704 72.3771 158.527 72.2882 158.882C72.0216 159.858 71.9327 160.923 72.0216 161.988C72.1105 162.965 72.3771 164.118 72.9992 164.917C73.1769 165.095 73.3547 164.917 73.3547 164.74V164.651Z" fill="#3B4051"/>
<path d="M114.434 181.515H74.6888C74.3332 181.515 74.0664 181.249 74.0664 180.894C74.0664 180.538 74.3332 180.272 74.6888 180.272H114.434C114.79 180.272 115.056 180.538 115.056 180.894C115.056 181.249 114.79 181.515 114.434 181.515Z" fill="#52596D"/>
<path d="M122.791 184H83.0462C82.6906 184 82.4238 183.734 82.4238 183.379C82.4238 183.024 82.6906 182.757 83.0462 182.757H122.791C123.147 182.757 123.414 183.024 123.414 183.379C123.414 183.734 123.147 184 122.791 184Z" fill="#52596D"/>
<path d="M121.014 178.763H112.3C111.944 178.763 111.678 178.497 111.678 178.142C111.678 177.787 111.944 177.521 112.3 177.521H121.014C121.369 177.521 121.636 177.787 121.636 178.142C121.636 178.497 121.369 178.763 121.014 178.763Z" fill="#52596D"/>
<path d="M130.529 181.515H119.326C118.97 181.515 118.703 181.249 118.703 180.894C118.703 180.538 118.97 180.272 119.326 180.272H130.529C130.885 180.272 131.151 180.538 131.151 180.894C131.151 181.249 130.885 181.515 130.529 181.515Z" fill="#52596D"/>
<path d="M125.993 178.586H122.97C122.703 178.586 122.525 178.408 122.525 178.142C122.525 177.876 122.703 177.698 122.97 177.698H125.993C126.26 177.698 126.438 177.876 126.438 178.142C126.438 178.408 126.26 178.586 125.993 178.586Z" fill="#52596D"/>
<path d="M177.563 178.231H160.225C159.958 178.231 159.691 177.964 159.691 177.698C159.691 177.432 159.958 177.166 160.225 177.166H177.563C177.83 177.166 178.097 177.432 178.097 177.698C178.097 177.964 177.83 178.231 177.563 178.231Z" fill="#52596D"/>
<path d="M182.008 180.45H176.318C175.962 180.45 175.695 180.183 175.695 179.828C175.695 179.473 175.962 179.207 176.318 179.207H182.008C182.364 179.207 182.631 179.473 182.631 179.828C182.631 180.183 182.364 180.45 182.008 180.45Z" fill="#52596D"/>
<path d="M173.918 180.45H171.161C170.806 180.45 170.539 180.183 170.539 179.828C170.539 179.473 170.806 179.207 171.161 179.207H173.918C174.274 179.207 174.54 179.473 174.54 179.828C174.54 180.183 174.274 180.45 173.918 180.45Z" fill="#52596D"/>
<path d="M48.1031 126.041H1.51156C0.711322 126.041 0 125.331 0 124.532C0 123.734 0.711322 123.024 1.51156 123.024H48.1031C48.9034 123.024 49.6147 123.734 49.6147 124.532C49.6147 125.331 48.9034 126.041 48.1031 126.041Z" fill="#B7D3F2"/>
<path d="M61.8843 130.39H36.8102C36.1878 130.39 35.6543 129.858 35.6543 129.236C35.6543 128.615 36.1878 128.083 36.8102 128.083H61.8843C62.5067 128.083 63.0402 128.615 63.0402 129.236C63.0402 129.858 62.5067 130.39 61.8843 130.39Z" fill="#B7D3F2"/>
<path d="M68.554 126.041H53.3495C52.5492 126.041 51.8379 125.331 51.8379 124.532C51.8379 123.733 52.5492 123.023 53.3495 123.023H68.554C69.3542 123.023 70.0655 123.733 70.0655 124.532C70.0655 125.331 69.3542 126.041 68.554 126.041Z" fill="#B7D3F2"/>
<path d="M51.5705 121.958H36.277C35.6546 121.958 35.1211 121.426 35.1211 120.804C35.1211 120.183 35.6546 119.651 36.277 119.651H51.5705C52.1929 119.651 52.7264 120.183 52.7264 120.804C52.7264 121.426 52.1929 121.958 51.5705 121.958Z" fill="#B7D3F2"/>
<path d="M298.755 71.0111H250.741C250.03 71.0111 249.496 70.4786 249.496 69.7685C249.496 69.0584 250.03 68.5259 250.741 68.5259H298.755C299.466 68.5259 300 69.0584 300 69.7685C300 70.4786 299.466 71.0111 298.755 71.0111Z" fill="#B7D3F2"/>
<path d="M277.327 74.3844H256.165C255.453 74.3844 254.92 73.8518 254.92 73.1418C254.92 72.4317 255.453 71.8992 256.165 71.8992H277.327C278.038 71.8992 278.571 72.4317 278.571 73.1418C278.571 73.8518 278.038 74.3844 277.327 74.3844Z" fill="#B7D3F2"/>
<path d="M240.339 74.4731H252.253C252.965 74.4731 253.498 73.9405 253.498 73.2304C253.498 72.5204 252.965 71.9878 252.253 71.9878H240.339C239.627 71.9878 239.094 72.5204 239.094 73.2304C239.094 73.9405 239.627 74.4731 240.339 74.4731Z" fill="#B7D3F2"/>
<path d="M260.344 77.313H250.474C249.941 77.313 249.496 76.8692 249.496 76.3367C249.496 75.8041 249.941 75.3604 250.474 75.3604H260.344C260.877 75.3604 261.322 75.8041 261.322 76.3367C261.322 76.8692 260.877 77.313 260.344 77.313Z" fill="#B7D3F2"/>
<path d="M267.724 77.313H263.367C262.833 77.313 262.389 76.8692 262.389 76.3367C262.389 75.8041 262.833 75.3604 263.367 75.3604H267.724C268.257 75.3604 268.702 75.8041 268.702 76.3367C268.702 76.8692 268.257 77.313 267.724 77.313Z" fill="#B7D3F2"/>
<path d="M236.958 73.9402H232.512C231.979 73.9402 231.445 73.4964 231.445 72.8751C231.445 72.3426 231.89 71.8101 232.512 71.8101H236.958C237.492 71.8101 238.025 72.2538 238.025 72.8751C238.025 73.4077 237.58 73.9402 236.958 73.9402Z" fill="#B7D3F2"/>
</svg>
