<svg width="72" height="72" viewBox="0 0 72 72" fill="none" xmlns="http://www.w3.org/2000/svg">
<g clip-path="url(#clip0)">
<path fill-rule="evenodd" clip-rule="evenodd" d="M53.7233 32.0999H72.0014V38.4495C72.0014 40.0194 70.7202 41.3017 69.1515 41.3017H62.5769L58.6551 43.2826L53.7231 41.3017V32.0999H53.7233Z" fill="#2D9CDB"/>
<path fill-rule="evenodd" clip-rule="evenodd" d="M56.5706 22.8857H69.1489C70.7176 22.8857 71.9988 24.168 71.9988 25.7379V30.456H53.7207V25.7379C53.7207 24.168 55.0019 22.8857 56.5706 22.8857Z" fill="#2D9CDB"/>
<path fill-rule="evenodd" clip-rule="evenodd" d="M53.7207 29.0339H71.9988V33.5178H53.7207V29.0339Z" fill="#5CBFEB"/>
<path fill-rule="evenodd" clip-rule="evenodd" d="M68.1835 29.0339H70.5242H71.9986V25.7378C71.9986 24.6651 71.3989 23.7281 70.5242 23.2431C70.1136 23.0171 69.6455 22.8855 69.1485 22.8855H65.3335C66.9022 22.8855 68.1834 24.1677 68.1834 25.7377V29.0339H68.1835Z" fill="#2D9CDB"/>
<path fill-rule="evenodd" clip-rule="evenodd" d="M68.1851 33.5178H70.5257H72V32.0998V30.4559V29.0339H70.5257H68.1851V30.4559V32.0998V33.5178Z" fill="#5CBFEB"/>
<path fill-rule="evenodd" clip-rule="evenodd" d="M68.1844 33.5178V38.4497C68.1844 40.0196 66.9031 41.3018 65.3345 41.3018H69.1495C69.6463 41.3018 70.1144 41.1744 70.5252 40.9484C71.3999 40.4594 71.9995 39.5224 71.9995 38.4497V33.5178H70.5252H68.1844Z" fill="#2D9CDB"/>
<path fill-rule="evenodd" clip-rule="evenodd" d="M53.7201 41.3019H62.5739V45.3747C62.5739 46.3529 61.7731 47.1501 60.7999 47.1501H31.9731C31.9731 44.5897 31.9731 43.2868 33.9319 43.2868L37.8331 43.2827C40.2889 43.2787 41.8986 42.6498 42.7979 41.3018H53.7201V41.3019Z" fill="#4F4F4F"/>
<path fill-rule="evenodd" clip-rule="evenodd" d="M35.4536 47.1501H60.8032C62.2898 49.7393 63.4848 52.8505 62.454 58.8015C60.7292 52.9326 43.2107 55.2753 41.4122 62.0482H22.0827C21.3517 60.392 20.6618 58.7562 20.0581 57.1041H25.5075C36.5294 52.9449 32.9855 54.7985 35.4536 47.1501Z" fill="#2D9CDB"/>
<path fill-rule="evenodd" clip-rule="evenodd" d="M33.8888 31.241C34.2666 33.2301 34.7799 35.1906 35.3548 36.8591L40.927 39.0424L47.1404 36.8591C46.9227 25.1009 42.5288 19.4622 38.7918 17.6375C37.4449 16.6119 36.0651 16.2256 36.0651 16.2256C36.0651 16.2256 34.25 19.1294 34.1555 19.1294C33.4575 20.7897 33.1946 22.9556 33.2398 25.2941L33.8888 31.241Z" fill="#ECEAEC"/>
<path fill-rule="evenodd" clip-rule="evenodd" d="M47.1406 36.8591H35.3548C32.6403 37.155 29.3018 39.2223 29.3018 45.6254V52.3367L31.9764 53.9299L35.4533 52.3367V47.1501C35.4533 44.5897 35.4533 43.2868 37.412 43.2868L41.3133 43.2827C43.769 43.2787 45.3787 42.6498 46.278 41.3018C46.9721 40.2621 47.2391 38.7948 47.1406 36.8591Z" fill="#5CBFEB"/>
<path fill-rule="evenodd" clip-rule="evenodd" d="M47.138 36.859C46.9203 25.1008 42.5263 19.4622 38.7894 17.6375C38.235 18.0278 37.6189 18.3485 36.9414 18.5868C40.2513 21.0897 43.5693 26.6831 43.7582 36.859H47.138Z" fill="#DAD8DB"/>
<path fill-rule="evenodd" clip-rule="evenodd" d="M47.1404 36.8591H43.7607C43.8593 38.7948 43.5924 40.2621 42.8984 41.3019C42.3317 42.1527 41.4775 42.8718 40.3071 43.2829H41.3133C43.769 43.2788 45.3788 42.6499 46.2781 41.3019C46.9719 40.2621 47.2388 38.7948 47.1404 36.8591Z" fill="#5CBFEB"/>
<path fill-rule="evenodd" clip-rule="evenodd" d="M41.4116 62.0482C41.4116 55.9698 46.2286 51.1284 52.1707 51.1284C57.0041 51.1284 61.0942 54.3341 62.4535 58.8015C62.7328 59.7179 62.897 60.692 62.9257 61.703C62.9381 62.0976 62.6669 62.0482 62.2974 62.0482C55.3369 62.0482 48.3721 62.0441 41.4116 62.0482Z" fill="#ECEAEC"/>
<path fill-rule="evenodd" clip-rule="evenodd" d="M44.1157 62.0481H60.4926C60.2586 66.462 56.6818 69.9719 52.3042 69.9719C47.9265 69.9719 44.3497 66.462 44.1157 62.0481Z" fill="#4F4F4F"/>
<path fill-rule="evenodd" clip-rule="evenodd" d="M2.529 60.3015L16.6185 63.5442C15.7233 67.4363 11.8426 69.8692 7.95375 68.9733C4.06083 68.0774 1.63378 64.1936 2.529 60.3015Z" fill="#4F4F4F"/>
<path fill-rule="evenodd" clip-rule="evenodd" d="M1.47431 56.3519C3.46598 53.4545 6.92367 51.7736 10.5375 52.1353C16.9109 53.4833 18.9847 57.2931 19.3994 62.0441C19.3912 62.6893 19.3213 63.3387 19.1817 63.9881C19.1406 64.169 19.0215 64.095 18.8243 64.0497L16.6191 63.5442L2.52956 60.3015L1.47417 60.0591L0 59.7179C0.283359 58.4768 0.792563 57.3425 1.47431 56.3519Z" fill="#ECEAEC"/>
<path fill-rule="evenodd" clip-rule="evenodd" d="M10.5264 52.1187L16.218 32.4245L18.7805 31.2778L21.6469 32.4245C17.8812 42.8635 18.9324 50.1501 21.4744 57.104C22.0822 58.7562 22.7721 60.3918 23.499 62.0481H19.4047L10.5264 52.1187Z" fill="#5CBFEB"/>
<path fill-rule="evenodd" clip-rule="evenodd" d="M28.1496 10.3424L34.8269 8.92041C35.5044 8.982 37.4428 10.6096 37.4428 11.6288L36.0219 18.8539C35.4306 19.0306 34.8023 19.1292 34.1534 19.1292C30.5972 19.1292 27.7144 16.2401 27.7144 12.6809C27.7144 11.8548 27.8662 11.0656 28.1496 10.3424Z" fill="#FFECE4"/>
<path fill-rule="evenodd" clip-rule="evenodd" d="M25.9956 10.3425C25.9956 5.74771 29.634 2.02832 34.1265 2.02832C38.6191 2.02832 42.2575 5.74771 42.2575 10.3425C42.2575 13.3755 41.0255 16.0716 38.7915 17.6374C37.9949 18.2005 37.0667 18.6156 36.0237 18.854V11.6288C36.0237 10.6095 35.5064 10.4041 34.8287 10.3424H28.1515H25.9956V10.3425Z" fill="#5CBFEB"/>
<path fill-rule="evenodd" clip-rule="evenodd" d="M29.8726 3.2571C31.1087 2.47621 32.5665 2.02832 34.1269 2.02832C38.6194 2.02832 42.2578 5.74771 42.2578 10.3425C42.2578 13.3755 41.0258 16.0716 38.7919 17.6374C38.2251 18.0361 37.5968 18.3608 36.9069 18.5991C38.5577 16.9264 39.4529 14.5264 39.4529 11.8795C39.4529 7.07929 35.6462 3.18721 30.9524 3.18721C30.5871 3.18721 30.2257 3.20774 29.8726 3.2571Z" fill="#5CBFEB"/>
<path fill-rule="evenodd" clip-rule="evenodd" d="M29.2998 52.3367H35.4515V56.2123C35.4515 57.0425 34.9998 57.1041 34.3345 57.1041H25.5055C25.3287 53.2161 27.6818 52.3367 29.2998 52.3367Z" fill="#4F4F4F"/>
<path fill-rule="evenodd" clip-rule="evenodd" d="M21.4731 57.1041C18.9312 50.1503 17.8799 42.8636 21.6456 32.4246H19.5348C19.5266 32.4246 19.5183 32.4246 19.5102 32.4246H18.7505C14.9849 42.8636 16.0319 50.1502 18.578 57.1041C19.1817 58.7563 19.8716 60.3919 20.6025 62.0482H22.0809H23.4977C22.7708 60.3919 22.0809 58.7562 21.4731 57.1041Z" fill="#5CBFEB"/>
<path fill-rule="evenodd" clip-rule="evenodd" d="M19.4003 62.0441L10.5384 52.1352C9.62261 52.0448 8.71502 52.0818 7.84033 52.2421L16.3573 61.7645C16.3491 62.3193 16.2957 62.8823 16.189 63.4454L16.6201 63.544L18.8254 64.0495C19.0225 64.0947 19.1417 64.1688 19.1827 63.9879C19.3222 63.3387 19.392 62.6893 19.4003 62.0441Z" fill="#DAD8DB"/>
<path fill-rule="evenodd" clip-rule="evenodd" d="M60.8018 47.1501H35.4521V49.3817H56.2805C57.9765 49.3817 58.7814 50.1133 59.4426 51.597C60.0134 52.8834 60.0258 53.3026 60.2844 54.8561C61.2577 55.9863 62.0051 57.3262 62.4527 58.8015C63.4833 52.8504 62.2883 49.7393 60.8018 47.1501Z" fill="#2D9CDB"/>
<path fill-rule="evenodd" clip-rule="evenodd" d="M60.2843 54.856C58.3132 52.5667 55.4098 51.1284 52.1698 51.1284C51.3567 51.1284 50.5682 51.2188 49.8086 51.3873C54.6585 52.4846 58.0505 56.7671 58.1983 61.703C58.2064 61.9743 58.0832 62.0358 57.8862 62.0482H60.4938H62.2967C62.6662 62.0482 62.9373 62.0976 62.925 61.703C62.8963 60.692 62.732 59.7179 62.4527 58.8015C62.4446 58.7726 62.4363 58.748 62.4281 58.7234C62.4281 58.7234 62.4281 58.7234 62.4281 58.7193C61.9763 57.2767 61.2413 55.9656 60.2843 54.856Z" fill="#DAD8DB"/>
<path fill-rule="evenodd" clip-rule="evenodd" d="M16.1862 63.4455L2.52775 60.3015C2.37588 60.9467 2.32244 61.5961 2.34705 62.2291L13.1883 64.7237L13.6153 64.8223C13.2129 66.5896 12.1904 68.0567 10.8311 69.0473C13.603 68.5582 15.9479 66.4621 16.6173 63.5442L16.1862 63.4455Z" fill="#4F4F4F"/>
<path fill-rule="evenodd" clip-rule="evenodd" d="M57.884 62.0482H44.1147C44.1599 62.9112 44.3365 63.7415 44.6199 64.5182H54.2127H56.8204C56.7177 66.4498 55.9786 68.2047 54.8122 69.5732C57.9784 68.5334 60.3067 65.5785 60.4915 62.0481H57.884V62.0482Z" fill="#4F4F4F"/>
<path fill-rule="evenodd" clip-rule="evenodd" d="M62.5757 45.3745V41.3018H57.0113V45.3745C57.0113 46.3527 56.2106 47.1499 55.2373 47.1499H60.8017C61.775 47.1501 62.5757 46.3527 62.5757 45.3745Z" fill="#4F4F4F"/>
<path fill-rule="evenodd" clip-rule="evenodd" d="M27.749 11.9904H33.2354C33.9129 12.052 34.4304 12.2617 34.4304 13.2809V19.1209C34.9807 19.0963 35.5145 19.0059 36.0237 18.8538V11.6287C36.0237 10.6095 35.5063 10.404 34.8287 10.3423H28.1515C27.9503 10.8602 27.8106 11.415 27.749 11.9904Z" fill="#FFDDCE"/>
<path fill-rule="evenodd" clip-rule="evenodd" d="M15.0309 26.2228L22.7142 28.7626C23.0921 29.0996 22.665 32.5355 22.4103 32.4245H16.2176H13.4785V26.7694C13.4785 25.6557 14.0576 25.9022 15.0309 26.2228Z" fill="#2D9CDB"/>
<path fill-rule="evenodd" clip-rule="evenodd" d="M26.2931 32.4244H25.6484H22.4084C20.3222 32.4244 20.2606 28.9639 22.7123 28.7626L26.2931 28.4749L27.254 30.5093L26.2931 32.4244Z" fill="#FFECE4"/>
<path fill-rule="evenodd" clip-rule="evenodd" d="M33.2386 25.294L34.5239 24.1884C37.7434 21.4143 41.8131 26.0954 37.5094 28.89L33.8875 31.2409L32.0641 32.4245H26.2944V28.4749L29.8794 28.1831L33.2386 25.294Z" fill="#5CBFEB"/>
<path fill-rule="evenodd" clip-rule="evenodd" d="M26.2932 32.4246V30.5095H25.5253H25.1106H24.4617H21.2217C21.0985 30.5095 20.9835 30.5013 20.8727 30.4766C20.7536 31.43 21.2916 32.4246 22.4086 32.4246H25.6486H26.2932Z" fill="#FFDDCE"/>
<path fill-rule="evenodd" clip-rule="evenodd" d="M37.5094 28.89C40.113 27.1968 39.653 24.8173 38.1706 23.8145C38.2897 24.8419 37.8011 26.0214 36.3227 26.9791L33.5015 28.8079L32.7048 29.3299L30.8815 30.5095H26.2944V32.4246H32.0641L33.8875 31.241L37.5094 28.89Z" fill="#5CBFEB"/>
<path fill-rule="evenodd" clip-rule="evenodd" d="M22.7124 28.7627L19.6202 27.7434C18.5853 28.8531 18.0843 31.0148 18.7496 32.4245H21.6446H22.4085C21.2915 32.4245 20.7536 31.4299 20.8726 30.4765C20.9793 29.6504 21.5749 28.8572 22.7124 28.7627Z" fill="#2D9CDB"/>
</g>
<defs>
<clipPath id="clip0">
<rect width="72" height="72" fill="white"/>
</clipPath>
</defs>
</svg>
